<?xml version="1.0"?>
<!DOCTYPE svg PUBLIC "-//W3C//DTD SVG 1.1//EN" 
         "http://www.w3.org/Graphics/SVG/1.1/DTD/svg11.dtd">
<svg xmlns="http://www.w3.org/2000/svg"
     xmlns:xlink="http://www.w3.org/1999/xlink"

width="1000.00um" height="1000.00um" viewBox="-50.500000 -2784.454558 3858.161229 3808.940330 "> 
<title> unnamed1 </title>
<desc>Picture generated by wxCanvas</desc>
<g style="fill:black; stroke:black; stroke-width:1"></g>
<g transform = "scale( 1,-1)">
    <g  id="topdrawing" 
        style = "  stroke:#FA00F0; stroke-width:1.000000;  fill:#000000;  " >

    <g  id="55" 
        transform = "matrix( 1.000000 0.000000 0.000000 1.000000 20.000000 -20.000000 )" 
        style = "  stroke:#FC36FC; stroke-width:0.000000;  fill:#000CF0;  " >

        <rect x="0.000000" y="0.000000" width="650.000000" height="270.000000" rx="31.00" /> 
    </g>
    <g  id="57" 
        transform = "matrix( 1.000000 0.000000 0.000000 1.000000 120.000000 -190.000000 )" 
        style = "  stroke:#FC9AFC; stroke-width:0.000000;  fill:#1E0018;  " >

        <rect x="0.000000" y="0.000000" width="650.000000" height="170.000000" rx="21.00" /> 
    </g>
    <g  id="59" 
        transform = "matrix( 1.000000 0.000000 0.000000 1.000000 220.000000 -460.000000 )" 
        style = "  stroke:#FC9AFC; stroke-width:0.000000;  fill:#320018;  " >

        <rect x="0.000000" y="0.000000" width="350.000000" height="270.000000" rx="21.00" /> 
    </g>
    <g  id="61" 
        transform = "matrix( 1.000000 0.000000 0.000000 1.000000 320.000000 -730.000000 )" 
        style = "  stroke:#FC9AFC; stroke-width:0.000000;  fill:#460018;  " >

        <rect x="0.000000" y="0.000000" width="350.000000" height="270.000000" rx="21.00" /> 
    </g>
    <g  id="63" 
        transform = "matrix( 1.000000 0.000000 0.000000 1.000000 420.000000 -800.000000 )" 
        style = "  stroke:#FC9AFC; stroke-width:0.000000;  fill:#5A0018;  " >

        <rect x="0.000000" y="0.000000" width="650.000000" height="70.000000" rx="21.00" /> 
    </g>
    <g  id="65" 
        transform = "matrix( 1.000000 0.000000 0.000000 1.000000 540.000000 -800.000000 )" 
        style = "  stroke:#DC0AC8; stroke-width:0.000000;  fill:#0AC818;  " >

        <text x="0.000000" y="0.000000" style="font-family:Verdana; font-size:180.000000;" > 
        relative to previous text
In wxCanvasWorld Nou Nou
En nog andere onzin
        </text>
    </g>
    <g  id="67" 
        transform = "matrix( 1.000000 0.000000 0.000000 1.000000 632.427554 -2026.679274 )" 
        style = "  stroke:#FC9AFC; stroke-width:0.000000;  fill:#D20018;  " >

        <rect x="0.000000" y="0.000000" width="250.000000" height="370.000000" rx="21.00" /> 
    <g  id="69" 
        style = "  stroke:#FC36FC; stroke-width:0.000000;  fill:#C80CF0;  " >

        <rect x="0.000000" y="0.000000" width="650.000000" height="270.000000" rx="31.00" /> 
    </g>
    <g  id="71" 
        transform = "matrix( 1.000000 0.000000 0.000000 1.000000 230.000000 0.000000 )" 
        style = "  stroke:#DC0A14; stroke-width:0.000000;  fill:#0AC87C;  " >

        <text x="0.000000" y="0.000000" style="font-family:Verdana; font-size:50.000000;" > 
        relative to previous text
And the next object also
        </text>
    </g>
    <g  id="73" 
        transform = "matrix( 1.000000 0.000000 0.000000 1.000000 452.427554 -161.448920 )" 
        style = "  stroke:#DC0A14; stroke-width:0.000000;  fill:#0AC87C;  " >

        <text x="0.000000" y="0.000000" style="font-family:Verdana; font-size:20.000000;" > 
        relative to previous text
And the next object also
        </text>
    </g>
    </g>
    <g  id="75" 
        transform = "matrix( 1.000000 0.000000 0.000000 1.000000 862.427554 -2275.135316 )" 
        style = "  stroke:#DC0A14; stroke-width:0.000000;  fill:#0AC87C;  " >

        <text x="0.000000" y="0.000000" style="font-family:Verdana; font-size:80.000000;" > 
        relative to previous text
And the next object also
lets see
if this really works
        </text>
    </g>
    <g  id="77" 
        style = "  stroke:#FA00F0; stroke-width:1.000000;  fill:#000000;  " >


         <image x="-50.000000" y="-50.000000" width="100.000000" height="100.000000" xlink:href="smaller.png" >  
         </image>

    </g>
    <g  id="78" 
        transform = "matrix( 1.000000 0.000000 0.000000 1.000000 0.000000 100.000000 )" 
        style = "  stroke:#FA00F0; stroke-width:1.000000;  fill:#000000;  " >


         <image x="-50.000000" y="-50.000000" width="100.000000" height="100.000000" xlink:href="smaller.png" >  
         </image>

    </g>
    <g  id="79" 
        transform = "matrix( 1.000000 0.000000 0.000000 1.000000 100.000000 0.000000 )" 
        style = "  stroke:#FA00F0; stroke-width:1.000000;  fill:#000000;  " >


         <image x="-50.000000" y="-50.000000" width="100.000000" height="100.000000" xlink:href="smaller.png" >  
         </image>

    </g>
    <g  id="80" 
        transform = "matrix( 1.000000 0.000000 0.000000 1.000000 100.000000 100.000000 )" 
        style = "  stroke:#FA00F0; stroke-width:1.000000;  fill:#000000;  " >


         <image x="-50.000000" y="-50.000000" width="100.000000" height="100.000000" xlink:href="smaller.png" >  
         </image>

    </g>
    </g>
</g> 

</svg> 
