<?xml version="1.0"?>
<!DOCTYPE svg PUBLIC "-//W3C//DTD SVG 1.1//EN" 
         "http://www.w3.org/Graphics/SVG/1.1/DTD/svg11.dtd">
<svg xmlns="http://www.w3.org/2000/svg"
     xmlns:xlink="http://www.w3.org/1999/xlink"
     width="1000.00um" height="1000.00um" viewBox="-2232.882268 -3245.787760 6265.444225 5865.151955 "> 
<title> unnamed1 </title>
<desc>Picture generated by wxCanvas</desc>
<g style="fill:black; stroke:black; stroke-width:1"></g>
<g transform = "scale( 1,-1)">
    <g  id="topdrawing" 
        style = "  stroke:#FA00F0; stroke-width:1.000000;  fill:#000000;  " >

    <g  id="group1" 
        transform = "matrix( 1.000000 0.000000 0.000000 1.000000 1000.000000 500.000000 )" 
        style = "  stroke:#FA00F0; stroke-width:1.000000;  fill:#000000;  " >

    <g  id="96" 
        transform = "matrix( 0.866025 0.500000 -0.500000 0.866025 500.000000 -500.000000 )" 
        style = "  stroke:#000000; stroke-width:0.000000;  fill:#000000;  " >

    <g  id="81" 
        transform = "matrix( 1.000000 0.000000 0.000000 1.000000 -500.000000 -2000.000000 )" 
        style = "  stroke:#FFD706; stroke-width:58.013372;  fill:#64119B;  " >

        <path d="M346.410162 200.000000 A400.000000 400.000000 0.0 0 0  0.000000 -400.000000 L0.000000 0.000000 Z" style="stroke:none;  " /> 
        <path d="M346.410162 200.000000 A400.000000 400.000000 0.0 0 0  0.000000 -400.000000 L0.000000 0.000000 Z" style="fill:none;" /> 
    </g>
    </g>
    <g  id="95" 
        transform = "matrix( 0.866025 0.500000 -0.500000 0.866025 500.000000 -500.000000 )" 
        style = "  stroke:#000000; stroke-width:0.000000;  fill:#000000;  " >

    <g  id="79" 
        transform = "matrix( 1.879385 0.684040 0.482527 3.580994 -2094.289299 -1900.000000 )" 
        style = "  stroke:#01D706; stroke-width:58.013372;  fill:#64119B;  " >

        <path d="M129.903811 -25.000000 A150.000000 50.000000 0.0 1 0  0.000000 50.000000 L0.000000 0.000000 Z" style="stroke:none;  " /> 
        <path d="M129.903811 -25.000000 A150.000000 50.000000 0.0 1 0  0.000000 50.000000 L0.000000 0.000000 Z" style="fill:none;" /> 
    </g>
    </g>
    <g  id="94" 
        transform = "matrix( 0.866025 0.500000 -0.500000 0.866025 500.000000 -500.000000 )" 
        style = "  stroke:#000000; stroke-width:0.000000;  fill:#000000;  " >

    <g  id="75" 
        transform = "matrix( 1.879385 0.684040 -3.617651 2.088652 339.099631 -1000.000000 )" 
        style = "  stroke:#C60369; stroke-width:174.040117;  fill:#13D706;  " >

        <circle cx="0.000000" cy="0.000000" r="100.000000" /> 
    </g>
    </g>
    <g  id="93" 
        transform = "matrix( 1.000000 0.000000 0.000000 1.000000 500.000000 -500.000000 )" 
        style = "  stroke:#000000; stroke-width:0.000000;  fill:#000000;  " >

    <g  id="73" 
        style = "  stroke:#097340; stroke-width:23.205349;  fill:#000000;  " >

        <polyline style="fill:none;"
        points="
        -400.000000,100.000000 -400.000000,150.000000 -399.218750,156.054688 -396.875000,161.718750 -392.968750,166.992188 -387.500000,171.875000 
        -380.468750,176.367188 -371.875000,180.468750 -366.992188,182.373047 -361.718750,184.179688 -356.054688,185.888672 -350.000000,187.500000 
        -343.554688,189.013672 -336.718750,190.429688 -329.492188,191.748047 -321.875000,192.968750 -313.867188,194.091797 -305.468750,195.117188 
        -296.679688,196.044922 -287.500000,196.875000 -277.929688,197.607422 -267.968750,198.242188 -262.841797,198.522949 -257.617188,198.779297 
        -252.294922,199.011230 -246.875000,199.218750 -241.357422,199.401855 -235.742188,199.560547 -230.029297,199.694824 -224.218750,199.804688 
        -218.310547,199.890137 -212.304688,199.951172 -206.201172,199.987793 -200.000000,200.000000 -193.798828,199.987793 -187.695312,199.951172 
        -181.689453,199.890137 -175.781250,199.804688 -169.970703,199.694824 -164.257812,199.560547 -158.642578,199.401855 -153.125000,199.218750 
        -147.705078,199.011230 -142.382812,198.779297 -137.158203,198.522949 -132.031250,198.242188 -122.070312,197.607422 -112.500000,196.875000 
        -103.320312,196.044922 -94.531250,195.117188 -86.132812,194.091797 -78.125000,192.968750 -70.507812,191.748047 -63.281250,190.429688 
        -56.445312,189.013672 -50.000000,187.500000 -43.945312,185.888672 -38.281250,184.179688 -33.007812,182.373047 -28.125000,180.468750 
        -19.531250,176.367188 -12.500000,171.875000 -7.031250,166.992188 -3.125000,161.718750 -0.781250,156.054688 0.000000,150.000000 
        -0.390625,144.091797 -1.562500,138.867188 -3.515625,134.326172 -6.250000,130.468750 -9.765625,127.294922 -14.062500,124.804688 
        -19.140625,122.998047 -25.000000,121.875000 -31.640625,121.435547 -39.062500,121.679688 -47.265625,122.607422 -56.250000,124.218750 
        -61.035156,125.280762 -66.015625,126.513672 -71.191406,127.917480 -76.562500,129.492188 -82.128906,131.237793 -87.890625,133.154297 
        -93.847656,135.241699 -100.000000,137.500000 -200.000000,175.000000 
        " /> 
    </g>
    </g>
    <g  id="91" 
        transform = "matrix( 0.866025 0.500000 -0.500000 0.866025 500.000000 -500.000000 )" 
        style = "  stroke:none;  fill:#0A1137;  " >

    <g  id="77" 
        transform = "matrix( 1.879385 0.684040 -2.671456 2.433038 758.649447 -1500.000000 )" 
        style = "  stroke:#02FF06; stroke-width:58.013372;  fill:#641137;  " >

        <ellipse cx="0.000000" cy="0.000000" rx="50.000000" ry="150.000000" /> 
    </g>
    </g>
    <g  id="90" 
        transform = "matrix( 1.000000 0.000000 0.000000 1.000000 500.000000 -500.000000 )" 
        style = "  stroke:#000000; stroke-width:0.000000;  fill:#000000;  " >

    <g  id="60" 
        style = "  stroke:#097340; stroke-width:4.000000;  fill:#000000;  " >

        <polygon style=" fill-rule:nonzero;  "
        points="
        -350.000000,437.500000 -356.250000,444.873047 -362.500000,451.367188 -368.750000,456.982422 -375.000000,461.718750 -381.250000,465.576172 
        -387.500000,468.554688 -393.750000,470.654297 -400.000000,471.875000 -406.250000,472.216797 -412.500000,471.679688 -418.750000,470.263672 
        -425.000000,467.968750 -431.250000,464.794922 -437.500000,460.742188 -443.750000,455.810547 -450.000000,450.000000 -455.273438,444.140625 
        -458.593750,439.062500 -459.960938,434.765625 -459.375000,431.250000 -456.835938,428.515625 -452.343750,426.562500 -445.898438,425.390625 
        -437.500000,425.000000 -432.568359,425.097656 -427.148438,425.390625 -421.240234,425.878906 -414.843750,426.562500 -407.958984,427.441406 
        -400.585938,428.515625 -392.724609,429.785156 -384.375000,431.250000 -375.537109,432.910156 -366.210938,434.765625 -361.364746,435.766602 
        -356.396484,436.816406 -351.306152,437.915039 -346.093750,439.062500 -340.759277,440.258789 -335.302734,441.503906 -329.724121,442.797852 
        -324.023438,444.140625 -318.200684,445.532227 -312.255859,446.972656 -306.188965,448.461914 -300.000000,450.000000 -293.811035,451.501465 
        -287.744141,452.880859 -281.799316,454.138184 -275.976562,455.273438 -270.275879,456.286621 -264.697266,457.177734 -259.240723,457.946777 
        -253.906250,458.593750 -248.693848,459.118652 -243.603516,459.521484 -238.635254,459.802246 -233.789062,459.960938 -224.462891,459.912109 
        -215.625000,459.375000 -207.275391,458.349609 -199.414062,456.835938 -192.041016,454.833984 -185.156250,452.343750 -178.759766,449.365234 
        -172.851562,445.898438 -167.431641,441.943359 -162.500000,437.500000 -158.056641,432.568359 -154.101562,427.148438 -150.634766,421.240234 
        -147.656250,414.843750 -145.166016,407.958984 -143.164062,400.585938 -141.650391,392.724609 -140.625000,384.375000 -140.087891,375.537109 
        -140.039062,366.210938 -140.197754,361.364746 -140.478516,356.396484 -140.881348,351.306152 -141.406250,346.093750 -142.053223,340.759277 
        -142.822266,335.302734 -143.713379,329.724121 -144.726562,324.023438 -145.861816,318.200684 -147.119141,312.255859 -148.498535,306.188965 
        -150.000000,300.000000 -151.562500,293.832397 -153.125000,287.829590 -154.687500,281.991577 -156.250000,276.318359 -157.812500,270.809937 
        -159.375000,265.466309 -160.937500,260.287476 -162.500000,255.273438 -165.625000,245.739746 -168.750000,236.865234 -171.875000,228.649902 
        -175.000000,221.093750 -178.125000,214.196777 -181.250000,207.958984 -184.375000,202.380371 -187.500000,197.460938 -193.750000,189.599609 
        -200.000000,184.375000 -206.250000,181.787109 -212.500000,181.835938 -218.750000,184.521484 -225.000000,189.843750 -228.125000,193.493652 
        -231.250000,197.802734 -234.375000,202.770996 -237.500000,208.398438 -240.625000,214.685059 -243.750000,221.630859 -246.875000,229.235840 
        -250.000000,237.500000 -253.125000,246.020508 -256.250000,254.394531 -259.375000,262.622070 -262.500000,270.703125 -265.625000,278.637695 
        -268.750000,286.425781 -271.875000,294.067383 -275.000000,301.562500 -278.125000,308.911133 -281.250000,316.113281 -284.375000,323.168945 
        -287.500000,330.078125 -290.625000,336.840820 -293.750000,343.457031 -296.875000,349.926758 -300.000000,356.250000 -303.125000,362.426758 
        -306.250000,368.457031 -309.375000,374.340820 -312.500000,380.078125 -315.625000,385.668945 -318.750000,391.113281 -321.875000,396.411133 
        -325.000000,401.562500 -331.250000,411.425781 -337.500000,420.703125 -343.750000,429.394531 
        " /> 

                <g transform = "matrix( 1.000000 0.000000 0.000000 1.000000 -400.000000 500.000000 )" >  >
                    <g  id="63" 
                        transform = "matrix( 0.984808 -0.173648 0.173648 0.984808 48.000000 12.000000 )" 
                        style = "  stroke:#FA00F0; stroke-width:1.000000;  fill:#000000;  " >

                        <text x="0.000000" y="0.000000" style="font-family:Verdana; font-size:20.000000;" > 
                        Firstproperty = value of property
                        </text>
                    </g>
                </g>
    </g>
    </g>
    <g  id="89" 
        transform = "matrix( 1.000000 0.000000 0.000000 1.000000 500.000000 -500.000000 )" 
        style = "  stroke:#000000; stroke-width:0.000000;  fill:#000000;  " >

    <g  id="71" 
        style = "  stroke:#FC00FC; stroke-width:6.000000;  fill:#000000;  " >

        <path d="M-500.000000 -700.000000 L0.000000 -800.000000" />
        <g transform = "matrix( 0.980581 -0.196116 0.196116 0.980581 -500.000000 -700.000000 )" >
        <g  id="65" 
            style = "  stroke:#0103CD; stroke-width:6.000000;  fill:#DBD706;  " >

            <polygon style=" fill-rule:nonzero;  	"
            points="
                0.000000,0.000000
                140.000000,35.000000
                90.000000,0.000000
                140.000000,-35.000000
                0.000000,0.000000
            " /> 
        </g>
        </g>
        <g transform = "matrix( -0.980581 0.196116 -0.196116 -0.980581 0.000000 -800.000000 )" >
        <g  id="65" 
            style = "  stroke:#0103CD; stroke-width:6.000000;  fill:#DBD706;  " >

            <polygon style=" fill-rule:nonzero;  	"
            points="
                0.000000,0.000000
                140.000000,35.000000
                90.000000,0.000000
                140.000000,-35.000000
                0.000000,0.000000
            " /> 
        </g>
        </g>
    </g>
    </g>
    <g  id="88" 
        transform = "matrix( 1.000000 0.000000 0.000000 1.000000 500.000000 -500.000000 )" 
        style = "  stroke:#000000; stroke-width:0.000000;  fill:#000000;  " >

    <g  id="69" 
        style = "  stroke:#FC0034; stroke-width:116.026745;  fill:#000000;  " >

        <path d="M-600.000000 -600.000000 L400.000000 -700.000000" />
        <g transform = "matrix( 0.995037 -0.099504 0.099504 0.995037 -600.000000 -600.000000 )" >
        <g  id="67" 
            style = "  stroke:#0103CD; stroke-width:3.000000;  fill:#DBD706;  " >

            <circle cx="0.000000" cy="0.000000" r="60.000000" /> 
        </g>
        </g>
        <g transform = "matrix( -0.995037 0.099504 -0.099504 -0.995037 400.000000 -700.000000 )" >
        <g  id="65" 
            style = "  stroke:#0103CD; stroke-width:6.000000;  fill:#DBD706;  " >

            <polygon style=" fill-rule:nonzero;  	"
            points="
                0.000000,0.000000
                140.000000,35.000000
                90.000000,0.000000
                140.000000,-35.000000
                0.000000,0.000000
            " /> 
        </g>
        </g>
    </g>
    </g>
    <g  id="87" 
        transform = "matrix( 1.000000 0.000000 0.000000 1.000000 500.000000 -500.000000 )" 
        style = "  stroke:#000000; stroke-width:0.000000;  fill:#000000;  " >

    <g  id="58" 
        style = "  stroke:#FC00FC; stroke-width:290.066862;  fill:#000000;  " >

        <path d="M-500.000000 0.000000 L400.000000 -100.000000" /> 
    </g>
    </g>
    <g  id="55" 
        transform = "matrix( 1.879385 0.684040 -2.671456 2.433038 -1171.279705 800.000000 )" 
        style = "  stroke:#FA00F0; stroke-width:1.000000;  fill:#000000;  " >

        <rect x="0.000000" y="0.000000" width="300.000000" height="200.000000" /> 
    </g>
    <g  id="85" 
        transform = "matrix( 1.000000 0.000000 0.000000 1.000000 500.000000 -500.000000 )" 
        style = "  stroke:#097340; stroke-width:58.013372;  fill:#647505;  " >

    <g  id="55" 
        transform = "matrix( 1.879385 0.684040 -2.671456 2.433038 -1171.279705 800.000000 )" 
        style = "  stroke:#FA00F0; stroke-width:1.000000;  fill:#000000;  " >

        <rect x="0.000000" y="0.000000" width="300.000000" height="200.000000" /> 
    </g>
    </g>
    <g  id="81" 
        transform = "matrix( 1.000000 0.000000 0.000000 1.000000 -500.000000 -2000.000000 )" 
        style = "  stroke:#FFD706; stroke-width:58.013372;  fill:#64119B;  " >

        <path d="M346.410162 200.000000 A400.000000 400.000000 0.0 0 0  0.000000 -400.000000 L0.000000 0.000000 Z" style="stroke:none;  " /> 
        <path d="M346.410162 200.000000 A400.000000 400.000000 0.0 0 0  0.000000 -400.000000 L0.000000 0.000000 Z " style="fill:none;" /> 
    </g>
    </g>
    <g  id="81" 
        transform = "matrix( 1.000000 0.000000 0.000000 1.000000 -500.000000 -2000.000000 )" 
        style = "  stroke:#FFD706; stroke-width:58.013372;  fill:#64119B;  " >

        <path d="M346.410162 200.000000 A400.000000 400.000000 0.0 0 0  0.000000 -400.000000 L0.000000 0.000000 Z" style="stroke:none;  " /> 
        <path d="M346.410162 200.000000 A400.000000 400.000000 0.0 0 0  0.000000 -400.000000 L0.000000 0.000000 Z " style="fill:none;" /> 
    </g>
    <g  id="79" 
        transform = "matrix( 1.879385 0.684040 0.482527 3.580994 -2094.289299 -1900.000000 )" 
        style = "  stroke:#01D706; stroke-width:58.013372;  fill:#64119B;  " >

        <path d="M129.903811 -25.000000 A150.000000 50.000000 0.0 1 0  0.000000 50.000000 L0.000000 0.000000 Z" style="stroke:none;  " /> 
        <path d="M129.903811 -25.000000 A150.000000 50.000000 0.0 1 0  0.000000 50.000000 L0.000000 0.000000 Z" style="fill:none;" /> 
    </g>
    <g  id="77" 
        transform = "matrix( 1.879385 0.684040 -2.671456 2.433038 758.649447 -1500.000000 )" 
        style = "  stroke:#02FF06; stroke-width:58.013372;  fill:#641137;  " >

        <ellipse cx="0.000000" cy="0.000000" rx="50.000000" ry="150.000000" /> 
    </g>
    <g  id="75" 
        transform = "matrix( 1.879385 0.684040 -3.617651 2.088652 339.099631 -1000.000000 )" 
        style = "  stroke:#C60369; stroke-width:174.040117;  fill:#13D706;  " >

        <circle cx="0.000000" cy="0.000000" r="100.000000" /> 
    </g>
    <g  id="73" 
        style = "  stroke:#097340; stroke-width:23.205349;  fill:#000000;  " >

        <polyline style="fill:none;"
        points="
        -400.000000,100.000000 -400.000000,150.000000 -399.218750,156.054688 -396.875000,161.718750 -392.968750,166.992188 -387.500000,171.875000 
        -380.468750,176.367188 -371.875000,180.468750 -366.992188,182.373047 -361.718750,184.179688 -356.054688,185.888672 -350.000000,187.500000 
        -343.554688,189.013672 -336.718750,190.429688 -329.492188,191.748047 -321.875000,192.968750 -313.867188,194.091797 -305.468750,195.117188 
        -296.679688,196.044922 -287.500000,196.875000 -277.929688,197.607422 -267.968750,198.242188 -262.841797,198.522949 -257.617188,198.779297 
        -252.294922,199.011230 -246.875000,199.218750 -241.357422,199.401855 -235.742188,199.560547 -230.029297,199.694824 -224.218750,199.804688 
        -218.310547,199.890137 -212.304688,199.951172 -206.201172,199.987793 -200.000000,200.000000 -193.798828,199.987793 -187.695312,199.951172 
        -181.689453,199.890137 -175.781250,199.804688 -169.970703,199.694824 -164.257812,199.560547 -158.642578,199.401855 -153.125000,199.218750 
        -147.705078,199.011230 -142.382812,198.779297 -137.158203,198.522949 -132.031250,198.242188 -122.070312,197.607422 -112.500000,196.875000 
        -103.320312,196.044922 -94.531250,195.117188 -86.132812,194.091797 -78.125000,192.968750 -70.507812,191.748047 -63.281250,190.429688 
        -56.445312,189.013672 -50.000000,187.500000 -43.945312,185.888672 -38.281250,184.179688 -33.007812,182.373047 -28.125000,180.468750 
        -19.531250,176.367188 -12.500000,171.875000 -7.031250,166.992188 -3.125000,161.718750 -0.781250,156.054688 0.000000,150.000000 
        -0.390625,144.091797 -1.562500,138.867188 -3.515625,134.326172 -6.250000,130.468750 -9.765625,127.294922 -14.062500,124.804688 
        -19.140625,122.998047 -25.000000,121.875000 -31.640625,121.435547 -39.062500,121.679688 -47.265625,122.607422 -56.250000,124.218750 
        -61.035156,125.280762 -66.015625,126.513672 -71.191406,127.917480 -76.562500,129.492188 -82.128906,131.237793 -87.890625,133.154297 
        -93.847656,135.241699 -100.000000,137.500000 -200.000000,175.000000 
        " /> 
    </g>
    <g  id="55" 
        transform = "matrix( 1.879385 0.684040 -2.671456 2.433038 -1171.279705 800.000000 )" 
        style = "  stroke:#FA00F0; stroke-width:1.000000;  fill:#000000;  " >

        <rect x="0.000000" y="0.000000" width="300.000000" height="200.000000" /> 
    </g>
    <g  id="58" 
        style = "  stroke:#FC00FC; stroke-width:290.066862;  fill:#000000;  " >

        <path d="M-500.000000 0.000000 L400.000000 -100.000000" /> 
    </g>
    <g  id="60" 
        style = "  stroke:#097340; stroke-width:4.000000;  fill:#000000;  " >

        <polygon style=" fill-rule:nonzero;  "
        points="
        -350.000000,437.500000 -356.250000,444.873047 -362.500000,451.367188 -368.750000,456.982422 -375.000000,461.718750 -381.250000,465.576172 
        -387.500000,468.554688 -393.750000,470.654297 -400.000000,471.875000 -406.250000,472.216797 -412.500000,471.679688 -418.750000,470.263672 
        -425.000000,467.968750 -431.250000,464.794922 -437.500000,460.742188 -443.750000,455.810547 -450.000000,450.000000 -455.273438,444.140625 
        -458.593750,439.062500 -459.960938,434.765625 -459.375000,431.250000 -456.835938,428.515625 -452.343750,426.562500 -445.898438,425.390625 
        -437.500000,425.000000 -432.568359,425.097656 -427.148438,425.390625 -421.240234,425.878906 -414.843750,426.562500 -407.958984,427.441406 
        -400.585938,428.515625 -392.724609,429.785156 -384.375000,431.250000 -375.537109,432.910156 -366.210938,434.765625 -361.364746,435.766602 
        -356.396484,436.816406 -351.306152,437.915039 -346.093750,439.062500 -340.759277,440.258789 -335.302734,441.503906 -329.724121,442.797852 
        -324.023438,444.140625 -318.200684,445.532227 -312.255859,446.972656 -306.188965,448.461914 -300.000000,450.000000 -293.811035,451.501465 
        -287.744141,452.880859 -281.799316,454.138184 -275.976562,455.273438 -270.275879,456.286621 -264.697266,457.177734 -259.240723,457.946777 
        -253.906250,458.593750 -248.693848,459.118652 -243.603516,459.521484 -238.635254,459.802246 -233.789062,459.960938 -224.462891,459.912109 
        -215.625000,459.375000 -207.275391,458.349609 -199.414062,456.835938 -192.041016,454.833984 -185.156250,452.343750 -178.759766,449.365234 
        -172.851562,445.898438 -167.431641,441.943359 -162.500000,437.500000 -158.056641,432.568359 -154.101562,427.148438 -150.634766,421.240234 
        -147.656250,414.843750 -145.166016,407.958984 -143.164062,400.585938 -141.650391,392.724609 -140.625000,384.375000 -140.087891,375.537109 
        -140.039062,366.210938 -140.197754,361.364746 -140.478516,356.396484 -140.881348,351.306152 -141.406250,346.093750 -142.053223,340.759277 
        -142.822266,335.302734 -143.713379,329.724121 -144.726562,324.023438 -145.861816,318.200684 -147.119141,312.255859 -148.498535,306.188965 
        -150.000000,300.000000 -151.562500,293.832397 -153.125000,287.829590 -154.687500,281.991577 -156.250000,276.318359 -157.812500,270.809937 
        -159.375000,265.466309 -160.937500,260.287476 -162.500000,255.273438 -165.625000,245.739746 -168.750000,236.865234 -171.875000,228.649902 
        -175.000000,221.093750 -178.125000,214.196777 -181.250000,207.958984 -184.375000,202.380371 -187.500000,197.460938 -193.750000,189.599609 
        -200.000000,184.375000 -206.250000,181.787109 -212.500000,181.835938 -218.750000,184.521484 -225.000000,189.843750 -228.125000,193.493652 
        -231.250000,197.802734 -234.375000,202.770996 -237.500000,208.398438 -240.625000,214.685059 -243.750000,221.630859 -246.875000,229.235840 
        -250.000000,237.500000 -253.125000,246.020508 -256.250000,254.394531 -259.375000,262.622070 -262.500000,270.703125 -265.625000,278.637695 
        -268.750000,286.425781 -271.875000,294.067383 -275.000000,301.562500 -278.125000,308.911133 -281.250000,316.113281 -284.375000,323.168945 
        -287.500000,330.078125 -290.625000,336.840820 -293.750000,343.457031 -296.875000,349.926758 -300.000000,356.250000 -303.125000,362.426758 
        -306.250000,368.457031 -309.375000,374.340820 -312.500000,380.078125 -315.625000,385.668945 -318.750000,391.113281 -321.875000,396.411133 
        -325.000000,401.562500 -331.250000,411.425781 -337.500000,420.703125 -343.750000,429.394531 
        " /> 

                <g transform = "matrix( 1.000000 0.000000 0.000000 1.000000 -400.000000 500.000000 )" >  >
                    <g  id="63" 
                        transform = "matrix( 0.984808 -0.173648 0.173648 0.984808 48.000000 12.000000 )" 
                        style = "  stroke:#FA00F0; stroke-width:1.000000;  fill:#000000;  " >

                        <text x="0.000000" y="0.000000" style="font-family:Verdana; font-size:20.000000;" > 
                        Firstproperty = value of property
                        </text>
                    </g>
                </g>
    </g>
    <g  id="69" 
        style = "  stroke:#FC0034; stroke-width:116.026745;  fill:#000000;  " >

        <path d="M-600.000000 -600.000000 L400.000000 -700.000000" />
        <g transform = "matrix( 0.995037 -0.099504 0.099504 0.995037 -600.000000 -600.000000 )" >
        <g  id="67" 
            style = "  stroke:#0103CD; stroke-width:3.000000;  fill:#DBD706;  " >

            <circle cx="0.000000" cy="0.000000" r="60.000000" /> 
        </g>
        </g>
        <g transform = "matrix( -0.995037 0.099504 -0.099504 -0.995037 400.000000 -700.000000 )" >
        <g  id="65" 
            style = "  stroke:#0103CD; stroke-width:6.000000;  fill:#DBD706;  " >

            <polygon style=" fill-rule:nonzero;  	"
            points="
                0.000000,0.000000
                140.000000,35.000000
                90.000000,0.000000
                140.000000,-35.000000
                0.000000,0.000000
            " /> 
        </g>
        </g>
    </g>
    <g  id="71" 
        style = "  stroke:#FC00FC; stroke-width:6.000000;  fill:#000000;  " >

        <path d="M-500.000000 -700.000000 L0.000000 -800.000000" />
        <g transform = "matrix( 0.980581 -0.196116 0.196116 0.980581 -500.000000 -700.000000 )" >
        <g  id="65" 
            style = "  stroke:#0103CD; stroke-width:6.000000;  fill:#DBD706;  " >

            <polygon style=" fill-rule:nonzero;  	"
            points="
                0.000000,0.000000
                140.000000,35.000000
                90.000000,0.000000
                140.000000,-35.000000
                0.000000,0.000000
            " /> 
        </g>
        </g>
        <g transform = "matrix( -0.980581 0.196116 -0.196116 -0.980581 0.000000 -800.000000 )" >
        <g  id="65" 
            style = "  stroke:#0103CD; stroke-width:6.000000;  fill:#DBD706;  " >

            <polygon style=" fill-rule:nonzero;  	"
            points="
                0.000000,0.000000
                140.000000,35.000000
                90.000000,0.000000
                140.000000,-35.000000
                0.000000,0.000000
            " /> 
        </g>
        </g>
    </g>
    </g>
</g> 

</svg> 
