<?xml version="1.0"?>
<!DOCTYPE svg PUBLIC "-//W3C//DTD SVG 1.1//EN" 
         "http://www.w3.org/Graphics/SVG/1.1/DTD/svg11.dtd">
<svg xmlns="http://www.w3.org/2000/svg"
     xmlns:xlink="http://www.w3.org/1999/xlink"
     width="10.00cm" height="10.00cm" viewBox="-876.421356 -1150.000000 3979.290566 2307.435849 "> 
<title> C:\wxwin\wx232bc\contrib\samples\canvas\editor\vdrawm\unnamed1.svg </title>
<desc>Picture generated by wxCanvas</desc>
<g style="fill:black; stroke:black; stroke-width:1"></g>

    <g  id="topdrawing" 
        style = "  fill:#000000;  stroke:#FA00F0; stroke-width:1.000000;  " >

    <g  id="243" 
        transform = "matrix( 1.000000 0.000000 0.000000 1.000000 500.000000 -500.000000 )" 
        style = "  fill:#000000;  stroke:#000000; stroke-width:0.000000;  " >

        <a xlink:href = "./index.html" id="240" 
            transform = "matrix( 1.000000 0.000000 0.000000 1.000000 -300.000000 350.000000 )" 
            style = "  fill:#03D706;  stroke:#C60369; stroke-width:30.000000;  " >

            <circle cx="0.000000" cy="0.000000" r="160.000000" /> 
        </a>
    </g>
    <a xlink:href = "./index.html" id="240" 
        transform = "matrix( 1.000000 0.000000 0.000000 1.000000 -300.000000 350.000000 )" 
        style = "  fill:#03D706;  stroke:#C60369; stroke-width:30.000000;  " >

        <circle cx="0.000000" cy="0.000000" r="160.000000" /> 
    </a>
    <g  id="238" 
        transform = "matrix( 1.000000 0.000000 0.000000 1.000000 200.000000 0.000000 )" 
        style = "  fill:#000000;  stroke:#000000; stroke-width:0.000000;  " >

        <g  id="236" 
            style = "  fill:#009B00;  stroke:#0A1119; stroke-width:16.000000;  " >

            <polygon style=" fill-rule:nonzero; "

            points="
            -350.000000,-350.000000 -350.000000,50.000000 50.000000,50.000000 50.000000,-350.000000 
            " /> 
        </g>
    </g>
    <g  id="235" 
        transform = "matrix( 1.000000 0.000000 0.000000 1.000000 -730.000000 250.000000 )" 
        style = "  fill:none;  stroke:#02FF06; stroke-width:10.000000;  " >

        <path d="M0.000000 -141.421356 A141.421356 141.421356 0.0 1 0  100.000000 100.000000 L0.000000 0.000000 Z" style="stroke:none;  " /> 
        <path d="M0.000000 -141.421356 A141.421356 141.421356 0.0 1 0  100.000000 100.000000 L0.000000 0.000000 Z " style="fill:none;" /> 
    </g>
    <g  id="234" 
        transform = "matrix( 1.000000 0.000000 0.000000 1.000000 -530.000000 250.000000 )" 
        style = "  fill:#64119B;  stroke:#01D706; stroke-width:10.000000;  " >

        <path d="M0.000000 -200.000000 A200.000000 200.000000 0.0 1 0  173.205081 100.000000 L0.000000 0.000000 Z" style="stroke:none;  " /> 
        <path d="M0.000000 -200.000000 A200.000000 200.000000 0.0 1 0  173.205081 100.000000 L0.000000 0.000000 Z " style="fill:none;" /> 
    </g>
    <g  id="233" 
        transform = "matrix( 1.000000 0.000000 0.000000 1.000000 -230.000000 250.000000 )" 
        style = "  fill:#64119B;  stroke:#01D706; stroke-width:10.000000;  " >

        <path d="M43.301270 -75.000000 A50.000000 150.000000 0.0 1 0  0.000000 150.000000 L0.000000 0.000000 Z" style="stroke:none;  " /> 
        <path d="M43.301270 -75.000000 A50.000000 150.000000 0.0 1 0  0.000000 150.000000 L0.000000 0.000000 Z" style="fill:none;" /> 
    </g>
    <g  id="232" 
        transform = "matrix( 1.000000 0.000000 0.000000 1.000000 -100.000000 250.000000 )" 
        style = "  fill:#641137;  stroke:#02FF06; stroke-width:10.000000;  " >

        <ellipse cx="0.000000" cy="0.000000" rx="50.000000" ry="150.000000" /> 
    </g>
    <radialGradient id="231" gradientUnits = "userSpaceOnUse"
     cx="-60.000000" cy="0.000000" r="300.000000" fx="0.000000" fy="0.000000" >
        <stop offset="0" style="stop-color:#00FF00"/>
        <stop offset="1" style="stop-color:#FF0000"/>
    </radialGradient>
    
    <g  id="230" 
        transform = "matrix( 1.000000 0.000000 0.000000 1.000000 -100.000000 -150.000000 )" 
        style = "  fill-rule:nonzero; fill:url(#231);  stroke:#C60369; stroke-width:0.000000;  " >

        <circle cx="0.000000" cy="0.000000" r="200.000000" /> 
    </g>
    <g  id="229" 
        transform = "matrix( 0.965926 0.258819 -0.258819 0.965926 20.000000 130.000000 )" 
        style = "  fill:#000000;  stroke:#000000; stroke-width:0.000000;  " >

        <g  id="216" 
            style = "  fill:#000000;  stroke:#FA00F0; stroke-width:1.000000;  " >

        <g  id="218" 
            transform = "matrix( 1.000000 0.000000 0.000000 1.000000 10.000000 20.000000 )" 
            style = "  fill:#0A11FF;  stroke:#097340; stroke-width:4.000000;  " >

            <rect x="0.000000" y="0.000000" width="104.000000" height="52.000000" rx="30.00" /> 
        </g>
        <g  id="217" 
            transform = "matrix( 1.000000 0.000000 0.000000 1.000000 60.000000 38.000000 )" 
            style = "  fill:#000000;  stroke:#FA00F0; stroke-width:1.000000;  " >


             <image x="-26.000000" y="-16.000000" width="52.000000" height="32.000000" xlink:href="217" >  
             </image>

        </g>
        </g>
    </g>
    <g  id="228" 
        transform = "matrix( 0.819152 -0.573576 0.573576 0.819152 80.000000 450.000000 )" 
        style = "  fill:#000000;  stroke:#000000; stroke-width:0.000000;  " >

        <a xlink:href = "groupswitheventhandling.html#groups" id="204" 
            transform = "matrix( 1.000000 0.000000 0.000000 1.000000 -130.000000 -123.000000 )" 
            style = "  fill:#000000;  stroke:#FA00F0; stroke-width:1.000000;  " >

        <g  id="221" 
            style = "  fill:#FA4ED8;  stroke:#FF0000; stroke-width:4.000000;  " >

            <polygon style=" fill-rule:nonzero;  "
            points="
            -100.000000,25.000000 -93.994141,23.510742 -88.476562,22.167969 -83.447266,20.971680 -78.906250,19.921875 -71.289062,18.261719 
            -65.625000,17.187500 -60.156250,16.796875 -62.500000,18.750000 -66.601562,20.605469 -72.656250,23.046875 -80.664062,26.074219 
            -90.625000,29.687500 -96.337891,31.713867 -102.539062,33.886719 -109.228516,36.206055 -116.406250,38.671875 -124.072266,41.284180 
            -132.226562,44.042969 -140.869141,46.948242 -150.000000,50.000000 -159.130859,53.076172 -167.773438,56.054688 -175.927734,58.935547 
            -183.593750,61.718750 -190.771484,64.404297 -197.460938,66.992188 -203.662109,69.482422 -209.375000,71.875000 -219.335938,76.367188 
            -227.343750,80.468750 -233.398438,84.179688 -237.500000,87.500000 -239.843750,92.968750 -234.375000,96.875000 -228.710938,98.242188 
            -221.093750,99.218750 -216.552734,99.560547 -211.523438,99.804688 -206.005859,99.951172 -200.000000,100.000000 -193.847656,99.951172 
            -187.890625,99.804688 -182.128906,99.560547 -176.562500,99.218750 -171.191406,98.779297 -166.015625,98.242188 -161.035156,97.607422 
            -156.250000,96.875000 -147.265625,95.117188 -139.062500,92.968750 -131.640625,90.429688 -125.000000,87.500000 -119.140625,84.179688 
            -114.062500,80.468750 -109.765625,76.367188 -106.250000,71.875000 -103.515625,66.992188 -101.562500,61.718750 -100.390625,56.054688 
            -100.000000,50.000000 -100.195312,44.042969 -100.781250,38.671875 -101.757812,33.886719 -103.125000,29.687500 -107.031250,23.046875 
            -112.500000,18.750000 -119.531250,16.796875 -128.125000,17.187500 -133.007812,18.261719 -138.281250,19.921875 -143.945312,22.167969 
            -150.000000,25.000000 -155.664062,27.929688 -160.156250,30.468750 -163.476562,32.617188 -165.625000,34.375000 -166.406250,36.718750 
            -162.500000,37.500000 -158.789062,37.304688 -153.906250,36.718750 -147.851562,35.742188 -140.625000,34.375000 -132.226562,32.617188 
            -122.656250,30.468750 -117.431641,29.248047 -111.914062,27.929688 -106.103516,26.513672 
            " /> 

        </g>
        <g  id="220" 
            style = "  fill:#6411FF;  stroke:#097340; stroke-width:4.000000;  " >

            <polygon style=" fill-rule:nonzero; "

            points="
            -30.000000,-20.000000 100.000000,0.000000 100.000000,100.000000 50.000000,150.000000 0.000000,100.000000 
            " /> 
        </g>
        <g  id="219" 
            transform = "matrix( 1.000000 0.000000 0.000000 1.000000 60.000000 50.000000 )" 
            style = "  fill:#000000;  stroke:#000000; stroke-width:0.000000;  " >

            <g  id="216" 
                style = "  fill:#000000;  stroke:#FA00F0; stroke-width:1.000000;  " >

            <g  id="218" 
                transform = "matrix( 1.000000 0.000000 0.000000 1.000000 10.000000 20.000000 )" 
                style = "  fill:#0A11FF;  stroke:#097340; stroke-width:4.000000;  " >

                <rect x="0.000000" y="0.000000" width="104.000000" height="52.000000" rx="30.00" /> 
            </g>
            <g  id="217" 
                transform = "matrix( 1.000000 0.000000 0.000000 1.000000 60.000000 38.000000 )" 
                style = "  fill:#000000;  stroke:#FA00F0; stroke-width:1.000000;  " >


                 <image x="-26.000000" y="-16.000000" width="52.000000" height="32.000000" xlink:href="217" >  
                 </image>

            </g>
            </g>
        </g>
        <g  id="214" 
            style = "  fill:#00F0F0;  stroke:#D22832; stroke-width:1.000000;  " >

            <rect x="0.000000" y="0.000000" width="104.000000" height="52.000000" /> 
        </g>
        <g  id="213" 
            transform = "matrix( 1.000000 0.000000 0.000000 1.000000 20.000000 -20.000000 )" 
            style = "  fill:#0078F0;  stroke:#FC36FC; stroke-width:3.000000;  " >

            <rect x="0.000000" y="0.000000" width="50.000000" height="170.000000" rx="30.00" /> 
        </g>
        <g  id="210" 
            transform = "matrix( 1.000000 0.000000 0.000000 1.000000 4.000000 38.000000 )" 
            style = "  fill:#000000;  stroke:#FA00F0; stroke-width:1.000000;  " >


             <image x="-16.000000" y="-16.000000" width="32.000000" height="32.000000" xlink:href="210" >  
             </image>

        </g>
        <g  id="209" 
            style = "  fill:#000000;  stroke:#FFA105; stroke-width:5.000000;  " >

            <path d="M10.000000 -85.000000 L50.000000 230.000000" />
            <g transform = "matrix( -0.125973 -0.992034 0.992034 -0.125973 50.000000 230.000000 )" >
            <g  id="208" 
                style = "  fill:#DBD706;  stroke:#0103CD; stroke-width:5.000000;  " >

                <polygon style=" fill-rule:nonzero;  	"
                points="
                    0.000000,0.000000
                    40.000000,10.000000
                    0.000000,0.000000
                    40.000000,-10.000000
                    0.000000,0.000000
                " /> 
            </g>
            </g>
        </g>
        <a xlink:href = "./index.html" id="211" 
            style = "  fill:#DBD706;  stroke:#0103CD; stroke-width:3.000000;  " >

            <circle cx="0.000000" cy="0.000000" r="30.000000" /> 
        </a>
        <g  id="219" 
            transform = "matrix( 1.000000 0.000000 0.000000 1.000000 60.000000 50.000000 )" 
            style = "  fill:#000000;  stroke:#000000; stroke-width:0.000000;  " >

        </g>
        </a>
    </g>
    <g  id="225" 
        transform = "matrix( 1.000000 0.000000 0.000000 1.000000 0.000000 -200.000000 )" 
        style = "  fill:#000000;  stroke:#000000; stroke-width:0.000000;  " >

        <radialGradient id="224" gradientUnits = "userSpaceOnUse"
         cx="50.000000" cy="100.000000" r="450.000000" fx="0.000000" fy="0.000000" >
            <stop offset="0" style="stop-color:#0000FF"/>
            <stop offset="1" style="stop-color:#FF0000"/>
        </radialGradient>
        
        <g  id="223" 
            style = "  fill-rule:nonzero; fill:url(#224);  stroke:#0A1119; stroke-width:16.000000;  " >

            <polygon style=" fill-rule:nonzero; "

            points="
            -125.000000,2.500000 -119.604492,11.866455 -114.355469,21.059570 -109.252930,30.079346 -104.296875,38.925781 -99.487305,47.598877 
            -94.824219,56.098633 -90.307617,64.425049 -85.937500,72.578125 -81.713867,80.557861 -77.636719,88.364258 -73.706055,95.997314 
            -69.921875,103.457031 -66.284180,110.743408 -62.792969,117.856445 -59.448242,124.796143 -56.250000,131.562500 -53.198242,138.155518 
            -50.292969,144.575195 -47.534180,150.821533 -44.921875,156.894531 -42.456055,162.794189 -40.136719,168.520508 -37.963867,174.073486 
            -35.937500,179.453125 -34.057617,184.659424 -32.324219,189.692383 -30.737305,194.552002 -29.296875,199.238281 -26.855469,208.090820 
            -25.000000,216.250000 -23.730469,223.715820 -23.046875,230.488281 -22.949219,236.567383 -23.437500,241.953125 -26.171875,250.644531 
            -31.250000,256.562500 -38.671875,259.707031 -48.437500,260.078125 -54.199219,259.223633 -60.546875,257.675781 -67.480469,255.434570 
            -75.000000,252.500000 -82.592773,249.416504 -89.746094,246.728516 -96.459961,244.436035 -102.734375,242.539062 -108.569336,241.037598 
            -113.964844,239.931641 -118.920898,239.221191 -123.437500,238.906250 -131.152344,239.462891 -137.109375,241.601562 -141.308594,245.322266 
            -143.750000,250.625000 -144.433594,257.509766 -143.359375,265.976562 -142.163086,270.803223 -140.527344,276.025391 -138.452148,281.643066 
            -135.937500,287.656250 -132.983398,294.064941 -129.589844,300.869141 -125.756836,308.068848 -121.484375,315.664062 -116.772461,323.654785 
            -111.621094,332.041016 -106.030273,340.822754 -100.000000,350.000000 -93.701172,359.082031 -87.304688,367.578125 -80.810547,375.488281 
            -74.218750,382.812500 -67.529297,389.550781 -60.742188,395.703125 -53.857422,401.269531 -46.875000,406.250000 -39.794922,410.644531 
            -32.617188,414.453125 -25.341797,417.675781 -17.968750,420.312500 -10.498047,422.363281 -2.929688,423.828125 4.736328,424.707031 
            12.500000,425.000000 20.361328,424.707031 28.320312,423.828125 36.376953,422.363281 44.531250,420.312500 52.783203,417.675781 
            61.132812,414.453125 69.580078,410.644531 78.125000,406.250000 86.767578,401.269531 95.507812,395.703125 104.345703,389.550781 
            113.281250,382.812500 122.314453,375.488281 131.445312,367.578125 140.673828,359.082031 150.000000,350.000000 158.935547,340.527344 
            166.992188,330.859375 170.690918,325.952148 174.169922,320.996094 177.429199,315.991211 180.468750,310.937500 183.288574,305.834961 
            185.888672,300.683594 188.269043,295.483398 190.429688,290.234375 192.370605,284.936523 194.091797,279.589844 195.593262,274.194336 
            196.875000,268.750000 197.937012,263.256836 198.779297,257.714844 199.401855,252.124023 199.804688,246.484375 199.987793,240.795898 
            199.951172,235.058594 199.694824,229.272461 199.218750,223.437500 198.522949,217.553711 197.607422,211.621094 196.472168,205.639648 
            195.117188,199.609375 193.542480,193.530273 191.748047,187.402344 189.733887,181.225586 187.500000,175.000000 185.046387,168.725586 
            182.373047,162.402344 179.479980,156.030273 176.367188,149.609375 173.034668,143.139648 169.482422,136.621094 165.710449,130.053711 
            161.718750,123.437500 157.507324,116.772461 153.076172,110.058594 148.425293,103.295898 143.554688,96.484375 138.464355,89.624023 
            133.154297,82.714844 127.624512,75.756836 121.875000,68.750000 115.905762,61.694336 109.716797,54.589844 103.308105,47.436523 
            96.679688,40.234375 89.831543,32.983398 82.763672,25.683594 75.476074,18.334961 67.968750,10.937500 60.241699,3.491211 
            52.294922,-4.003906 44.128418,-11.547852 35.742188,-19.140625 27.136230,-26.782227 18.310547,-34.472656 9.265137,-42.211914 
            0.000000,-50.000000 -9.259033,-57.677612 -18.286133,-65.085449 -27.081299,-72.223511 -35.644531,-79.091797 -43.975830,-85.690308 
            -52.075195,-92.019043 -59.942627,-98.078003 -67.578125,-103.867188 -74.981689,-109.386597 -82.153320,-114.636230 -89.093018,-119.616089 
            -95.800781,-124.326172 -102.276611,-128.766479 -108.520508,-132.937012 -114.532471,-136.837769 -120.312500,-140.468750 -125.860596,-143.829956 
            -131.176758,-146.921387 -136.260986,-149.743042 -141.113281,-152.294922 -150.122070,-156.589355 -158.203125,-159.804688 -165.356445,-161.940918 
            -171.582031,-162.998047 -176.879883,-162.976074 -181.250000,-161.875000 -187.207031,-156.435547 -189.453125,-146.679688 -189.184570,-140.183105 
            -187.988281,-132.607422 -185.864258,-123.952637 -182.812500,-114.218750 -180.938721,-108.947144 -178.833008,-103.405762 -176.495361,-97.594604 
            -173.925781,-91.513672 -171.124268,-85.162964 -168.090820,-78.542480 -164.825439,-71.652222 -161.328125,-64.492188 -157.598877,-57.062378 
            -153.637695,-49.362793 -149.444580,-41.393433 -145.019531,-33.154297 -140.362549,-24.645386 -135.473633,-15.866699 -130.352783,-6.818237 
            " /> 
        </g>
    </g>
    <g  id="222" 
        style = "  fill:#000000;  stroke:#097340; stroke-width:40.000000;  " >

        <polyline style="fill:none;"
        points="
        -400.000000,100.000000 -400.000000,200.000000 0.000000,200.000000 0.000000,100.000000 -200.000000,175.000000 
        " /> 
            <g transform = "matrix( 0.000000 1.000000 -1.000000 0.000000 -400.000000 100.000000 )" > 

            <g  id="203" 
                style = "  fill:#DBD706;  stroke:#0103CD; stroke-width:6.000000;  " >

                <polygon style=" fill-rule:nonzero;  	"
                points="
                    0.000000,0.000000
                    140.000000,35.000000
                    90.000000,0.000000
                    140.000000,-35.000000
                    0.000000,0.000000
                " /> 
            </g>
            </g>

            <g transform = "matrix( 0.936329 -0.351123 0.351123 0.936329 -200.000000 175.000000 )" > 

            <g  id="203" 
                style = "  fill:#DBD706;  stroke:#0103CD; stroke-width:6.000000;  " >

                <polygon style=" fill-rule:nonzero;  	"
                points="
                    0.000000,0.000000
                    140.000000,35.000000
                    90.000000,0.000000
                    140.000000,-35.000000
                    0.000000,0.000000
                " /> 
            </g>
            </g>

    </g>
    <g  id="215" 
        style = "  fill:#000000;  stroke:#C80040; stroke-width:4.000000;  " >

        <polyline style="fill:none;"
        points="
        230.000000,220.000000 300.000000,200.000000 300.000000,300.000000 
        " /> 
    </g>
    <g  id="162" 
        style = "  fill:#000000;  stroke:#097340; stroke-width:10.000000;  " >

        <polygon style=" fill-rule:nonzero;  "
        points="
        -350.000000,437.500000 -356.250000,444.873047 -362.500000,451.367188 -368.750000,456.982422 -375.000000,461.718750 -381.250000,465.576172 
        -387.500000,468.554688 -393.750000,470.654297 -400.000000,471.875000 -406.250000,472.216797 -412.500000,471.679688 -418.750000,470.263672 
        -425.000000,467.968750 -431.250000,464.794922 -437.500000,460.742188 -443.750000,455.810547 -450.000000,450.000000 -455.273438,444.140625 
        -458.593750,439.062500 -459.960938,434.765625 -459.375000,431.250000 -456.835938,428.515625 -452.343750,426.562500 -445.898438,425.390625 
        -437.500000,425.000000 -432.568359,425.097656 -427.148438,425.390625 -421.240234,425.878906 -414.843750,426.562500 -407.958984,427.441406 
        -400.585938,428.515625 -392.724609,429.785156 -384.375000,431.250000 -375.537109,432.910156 -366.210938,434.765625 -361.364746,435.766602 
        -356.396484,436.816406 -351.306152,437.915039 -346.093750,439.062500 -340.759277,440.258789 -335.302734,441.503906 -329.724121,442.797852 
        -324.023438,444.140625 -318.200684,445.532227 -312.255859,446.972656 -306.188965,448.461914 -300.000000,450.000000 -293.811035,451.501465 
        -287.744141,452.880859 -281.799316,454.138184 -275.976562,455.273438 -270.275879,456.286621 -264.697266,457.177734 -259.240723,457.946777 
        -253.906250,458.593750 -248.693848,459.118652 -243.603516,459.521484 -238.635254,459.802246 -233.789062,459.960938 -224.462891,459.912109 
        -215.625000,459.375000 -207.275391,458.349609 -199.414062,456.835938 -192.041016,454.833984 -185.156250,452.343750 -178.759766,449.365234 
        -172.851562,445.898438 -167.431641,441.943359 -162.500000,437.500000 -158.056641,432.568359 -154.101562,427.148438 -150.634766,421.240234 
        -147.656250,414.843750 -145.166016,407.958984 -143.164062,400.585938 -141.650391,392.724609 -140.625000,384.375000 -140.087891,375.537109 
        -140.039062,366.210938 -140.197754,361.364746 -140.478516,356.396484 -140.881348,351.306152 -141.406250,346.093750 -142.053223,340.759277 
        -142.822266,335.302734 -143.713379,329.724121 -144.726562,324.023438 -145.861816,318.200684 -147.119141,312.255859 -148.498535,306.188965 
        -150.000000,300.000000 -151.562500,293.832397 -153.125000,287.829590 -154.687500,281.991577 -156.250000,276.318359 -157.812500,270.809937 
        -159.375000,265.466309 -160.937500,260.287476 -162.500000,255.273438 -165.625000,245.739746 -168.750000,236.865234 -171.875000,228.649902 
        -175.000000,221.093750 -178.125000,214.196777 -181.250000,207.958984 -184.375000,202.380371 -187.500000,197.460938 -193.750000,189.599609 
        -200.000000,184.375000 -206.250000,181.787109 -212.500000,181.835938 -218.750000,184.521484 -225.000000,189.843750 -228.125000,193.493652 
        -231.250000,197.802734 -234.375000,202.770996 -237.500000,208.398438 -240.625000,214.685059 -243.750000,221.630859 -246.875000,229.235840 
        -250.000000,237.500000 -253.125000,246.020508 -256.250000,254.394531 -259.375000,262.622070 -262.500000,270.703125 -265.625000,278.637695 
        -268.750000,286.425781 -271.875000,294.067383 -275.000000,301.562500 -278.125000,308.911133 -281.250000,316.113281 -284.375000,323.168945 
        -287.500000,330.078125 -290.625000,336.840820 -293.750000,343.457031 -296.875000,349.926758 -300.000000,356.250000 -303.125000,362.426758 
        -306.250000,368.457031 -309.375000,374.340820 -312.500000,380.078125 -315.625000,385.668945 -318.750000,391.113281 -321.875000,396.411133 
        -325.000000,401.562500 -331.250000,411.425781 -337.500000,420.703125 -343.750000,429.394531 
        " /> 

    </g>
    <g  id="94" 
        style = "  fill:#000000;  stroke:#FF0000; stroke-width:20.725472;  " >

        <path d="M-103.000000 0.0 L 0.000000 0.0" /> 
        <path d="M 0.0 0.000000 L 0.000000 0.0" /> 
    </g>
    <g  id="95" 
        transform = "matrix( 1.000000 0.000000 0.000000 1.000000 10.000000 250.000000 )" 
        style = "  fill:#647505;  stroke:#097340; stroke-width:10.000000;  " >

        <rect x="0.000000" y="0.000000" width="300.000000" height="140.000000" rx="50.00" /> 
    </g>
    <g  id="97" 
        transform = "matrix( 1.000000 0.000000 0.000000 1.000000 10.000000 50.000000 )" 
        style = "  fill:#FF0000;  stroke:none;  " >

        <rect x="0.000000" y="0.000000" width="3.000000" height="140.000000" /> 
    </g>
    <g  id="98" 
        transform = "matrix( 1.000000 0.000000 0.000000 1.000000 20.000000 50.000000 )" 
        style = "  fill:#FF0000;  stroke:none;  " >

        <rect x="0.000000" y="0.000000" width="3.000000" height="140.000000" /> 
    </g>
    <g  id="99" 
        transform = "matrix( 1.000000 0.000000 0.000000 1.000000 30.000000 50.000000 )" 
        style = "  fill:#FF0000;  stroke:none;  " >

        <rect x="0.000000" y="0.000000" width="3.000000" height="140.000000" /> 
    </g>
    <g  id="100" 
        transform = "matrix( 1.000000 0.000000 0.000000 1.000000 40.000000 50.000000 )" 
        style = "  fill:#FF0000;  stroke:none;  " >

        <rect x="0.000000" y="0.000000" width="3.000000" height="140.000000" /> 
    </g>
    <g  id="101" 
        transform = "matrix( 1.000000 0.000000 0.000000 1.000000 50.000000 50.000000 )" 
        style = "  fill:#FF0000;  stroke:none;  " >

        <rect x="0.000000" y="0.000000" width="3.000000" height="140.000000" /> 
    </g>
    <g  id="102" 
        transform = "matrix( 1.000000 0.000000 0.000000 1.000000 60.000000 50.000000 )" 
        style = "  fill:#FF0000;  stroke:none;  " >

        <rect x="0.000000" y="0.000000" width="3.000000" height="140.000000" /> 
    </g>
    <g  id="103" 
        transform = "matrix( 1.000000 0.000000 0.000000 1.000000 70.000000 50.000000 )" 
        style = "  fill:#FF0000;  stroke:none;  " >

        <rect x="0.000000" y="0.000000" width="3.000000" height="140.000000" /> 
    </g>
    <g  id="104" 
        transform = "matrix( 1.000000 0.000000 0.000000 1.000000 80.000000 50.000000 )" 
        style = "  fill:#FF0000;  stroke:none;  " >

        <rect x="0.000000" y="0.000000" width="3.000000" height="140.000000" /> 
    </g>
    <g  id="105" 
        transform = "matrix( 1.000000 0.000000 0.000000 1.000000 90.000000 50.000000 )" 
        style = "  fill:#FF0000;  stroke:none;  " >

        <rect x="0.000000" y="0.000000" width="3.000000" height="140.000000" /> 
    </g>
    <g  id="106" 
        transform = "matrix( 1.000000 0.000000 0.000000 1.000000 100.000000 50.000000 )" 
        style = "  fill:#FF0000;  stroke:none;  " >

        <rect x="0.000000" y="0.000000" width="3.000000" height="140.000000" /> 
    </g>
    <g  id="107" 
        transform = "matrix( 1.000000 0.000000 0.000000 1.000000 110.000000 50.000000 )" 
        style = "  fill:#FF0000;  stroke:none;  " >

        <rect x="0.000000" y="0.000000" width="3.000000" height="140.000000" /> 
    </g>
    <g  id="108" 
        transform = "matrix( 1.000000 0.000000 0.000000 1.000000 120.000000 50.000000 )" 
        style = "  fill:#FF0000;  stroke:none;  " >

        <rect x="0.000000" y="0.000000" width="3.000000" height="140.000000" /> 
    </g>
    <g  id="109" 
        transform = "matrix( 1.000000 0.000000 0.000000 1.000000 130.000000 50.000000 )" 
        style = "  fill:#FF0000;  stroke:none;  " >

        <rect x="0.000000" y="0.000000" width="3.000000" height="140.000000" /> 
    </g>
    <g  id="110" 
        transform = "matrix( 1.000000 0.000000 0.000000 1.000000 140.000000 50.000000 )" 
        style = "  fill:#FF0000;  stroke:none;  " >

        <rect x="0.000000" y="0.000000" width="3.000000" height="140.000000" /> 
    </g>
    <g  id="111" 
        transform = "matrix( 1.000000 0.000000 0.000000 1.000000 150.000000 50.000000 )" 
        style = "  fill:#FF0000;  stroke:none;  " >

        <rect x="0.000000" y="0.000000" width="3.000000" height="140.000000" /> 
    </g>
    <g  id="112" 
        transform = "matrix( 1.000000 0.000000 0.000000 1.000000 160.000000 50.000000 )" 
        style = "  fill:#FF0000;  stroke:none;  " >

        <rect x="0.000000" y="0.000000" width="3.000000" height="140.000000" /> 
    </g>
    <g  id="113" 
        transform = "matrix( 1.000000 0.000000 0.000000 1.000000 170.000000 50.000000 )" 
        style = "  fill:#FF0000;  stroke:none;  " >

        <rect x="0.000000" y="0.000000" width="3.000000" height="140.000000" /> 
    </g>
    <g  id="114" 
        transform = "matrix( 1.000000 0.000000 0.000000 1.000000 180.000000 50.000000 )" 
        style = "  fill:#FF0000;  stroke:none;  " >

        <rect x="0.000000" y="0.000000" width="3.000000" height="140.000000" /> 
    </g>
    <g  id="115" 
        transform = "matrix( 1.000000 0.000000 0.000000 1.000000 190.000000 50.000000 )" 
        style = "  fill:#FF0000;  stroke:none;  " >

        <rect x="0.000000" y="0.000000" width="3.000000" height="140.000000" /> 
    </g>
    <g  id="116" 
        transform = "matrix( 1.000000 0.000000 0.000000 1.000000 200.000000 50.000000 )" 
        style = "  fill:#FF0000;  stroke:none;  " >

        <rect x="0.000000" y="0.000000" width="3.000000" height="140.000000" /> 
    </g>
    <g  id="117" 
        transform = "matrix( 1.000000 0.000000 0.000000 1.000000 210.000000 50.000000 )" 
        style = "  fill:#FF0000;  stroke:none;  " >

        <rect x="0.000000" y="0.000000" width="3.000000" height="140.000000" /> 
    </g>
    <g  id="118" 
        transform = "matrix( 1.000000 0.000000 0.000000 1.000000 220.000000 50.000000 )" 
        style = "  fill:#FF0000;  stroke:none;  " >

        <rect x="0.000000" y="0.000000" width="3.000000" height="140.000000" /> 
    </g>
    <g  id="119" 
        transform = "matrix( 1.000000 0.000000 0.000000 1.000000 230.000000 50.000000 )" 
        style = "  fill:#FF0000;  stroke:none;  " >

        <rect x="0.000000" y="0.000000" width="3.000000" height="140.000000" /> 
    </g>
    <g  id="120" 
        transform = "matrix( 1.000000 0.000000 0.000000 1.000000 240.000000 50.000000 )" 
        style = "  fill:#FF0000;  stroke:none;  " >

        <rect x="0.000000" y="0.000000" width="3.000000" height="140.000000" /> 
    </g>
    <g  id="121" 
        transform = "matrix( 1.000000 0.000000 0.000000 1.000000 250.000000 50.000000 )" 
        style = "  fill:#FF0000;  stroke:none;  " >

        <rect x="0.000000" y="0.000000" width="3.000000" height="140.000000" /> 
    </g>
    <g  id="122" 
        transform = "matrix( 1.000000 0.000000 0.000000 1.000000 260.000000 50.000000 )" 
        style = "  fill:#FF0000;  stroke:none;  " >

        <rect x="0.000000" y="0.000000" width="3.000000" height="140.000000" /> 
    </g>
    <g  id="123" 
        transform = "matrix( 1.000000 0.000000 0.000000 1.000000 270.000000 50.000000 )" 
        style = "  fill:#FF0000;  stroke:none;  " >

        <rect x="0.000000" y="0.000000" width="3.000000" height="140.000000" /> 
    </g>
    <g  id="124" 
        transform = "matrix( 1.000000 0.000000 0.000000 1.000000 280.000000 50.000000 )" 
        style = "  fill:#FF0000;  stroke:none;  " >

        <rect x="0.000000" y="0.000000" width="3.000000" height="140.000000" /> 
    </g>
    <g  id="125" 
        transform = "matrix( 1.000000 0.000000 0.000000 1.000000 290.000000 50.000000 )" 
        style = "  fill:#FF0000;  stroke:none;  " >

        <rect x="0.000000" y="0.000000" width="3.000000" height="140.000000" /> 
    </g>
    <g  id="126" 
        transform = "matrix( 1.000000 0.000000 0.000000 1.000000 15.000000 50.000000 )" 
        style = "  fill:#001911;  stroke:none;  " >

        <rect x="0.000000" y="0.000000" width="3.000000" height="140.000000" /> 
    </g>
    <g  id="127" 
        transform = "matrix( 1.000000 0.000000 0.000000 1.000000 25.000000 50.000000 )" 
        style = "  fill:#00231B;  stroke:none;  " >

        <rect x="0.000000" y="0.000000" width="3.000000" height="140.000000" /> 
    </g>
    <g  id="128" 
        transform = "matrix( 1.000000 0.000000 0.000000 1.000000 35.000000 50.000000 )" 
        style = "  fill:#002D25;  stroke:none;  " >

        <rect x="0.000000" y="0.000000" width="3.000000" height="140.000000" /> 
    </g>
    <g  id="129" 
        transform = "matrix( 1.000000 0.000000 0.000000 1.000000 45.000000 50.000000 )" 
        style = "  fill:#00372F;  stroke:none;  " >

        <rect x="0.000000" y="0.000000" width="3.000000" height="140.000000" /> 
    </g>
    <g  id="130" 
        transform = "matrix( 1.000000 0.000000 0.000000 1.000000 55.000000 50.000000 )" 
        style = "  fill:#004139;  stroke:none;  " >

        <rect x="0.000000" y="0.000000" width="3.000000" height="140.000000" /> 
    </g>
    <g  id="131" 
        transform = "matrix( 1.000000 0.000000 0.000000 1.000000 65.000000 50.000000 )" 
        style = "  fill:#004B43;  stroke:none;  " >

        <rect x="0.000000" y="0.000000" width="3.000000" height="140.000000" /> 
    </g>
    <g  id="132" 
        transform = "matrix( 1.000000 0.000000 0.000000 1.000000 75.000000 50.000000 )" 
        style = "  fill:#00554D;  stroke:none;  " >

        <rect x="0.000000" y="0.000000" width="3.000000" height="140.000000" /> 
    </g>
    <g  id="133" 
        transform = "matrix( 1.000000 0.000000 0.000000 1.000000 85.000000 50.000000 )" 
        style = "  fill:#005F57;  stroke:none;  " >

        <rect x="0.000000" y="0.000000" width="3.000000" height="140.000000" /> 
    </g>
    <g  id="134" 
        transform = "matrix( 1.000000 0.000000 0.000000 1.000000 95.000000 50.000000 )" 
        style = "  fill:#006961;  stroke:none;  " >

        <rect x="0.000000" y="0.000000" width="3.000000" height="140.000000" /> 
    </g>
    <g  id="135" 
        transform = "matrix( 1.000000 0.000000 0.000000 1.000000 105.000000 50.000000 )" 
        style = "  fill:#00736B;  stroke:none;  " >

        <rect x="0.000000" y="0.000000" width="3.000000" height="140.000000" /> 
    </g>
    <g  id="136" 
        transform = "matrix( 1.000000 0.000000 0.000000 1.000000 115.000000 50.000000 )" 
        style = "  fill:#007D75;  stroke:none;  " >

        <rect x="0.000000" y="0.000000" width="3.000000" height="140.000000" /> 
    </g>
    <g  id="137" 
        transform = "matrix( 1.000000 0.000000 0.000000 1.000000 125.000000 50.000000 )" 
        style = "  fill:#00877F;  stroke:none;  " >

        <rect x="0.000000" y="0.000000" width="3.000000" height="140.000000" /> 
    </g>
    <g  id="138" 
        transform = "matrix( 1.000000 0.000000 0.000000 1.000000 135.000000 50.000000 )" 
        style = "  fill:#009189;  stroke:none;  " >

        <rect x="0.000000" y="0.000000" width="3.000000" height="140.000000" /> 
    </g>
    <g  id="139" 
        transform = "matrix( 1.000000 0.000000 0.000000 1.000000 145.000000 50.000000 )" 
        style = "  fill:#009B93;  stroke:none;  " >

        <rect x="0.000000" y="0.000000" width="3.000000" height="140.000000" /> 
    </g>
    <g  id="140" 
        transform = "matrix( 1.000000 0.000000 0.000000 1.000000 155.000000 50.000000 )" 
        style = "  fill:#00A59D;  stroke:none;  " >

        <rect x="0.000000" y="0.000000" width="3.000000" height="140.000000" /> 
    </g>
    <g  id="141" 
        transform = "matrix( 1.000000 0.000000 0.000000 1.000000 165.000000 50.000000 )" 
        style = "  fill:#00AFA7;  stroke:none;  " >

        <rect x="0.000000" y="0.000000" width="3.000000" height="140.000000" /> 
    </g>
    <g  id="142" 
        transform = "matrix( 1.000000 0.000000 0.000000 1.000000 175.000000 50.000000 )" 
        style = "  fill:#00B9B1;  stroke:none;  " >

        <rect x="0.000000" y="0.000000" width="3.000000" height="140.000000" /> 
    </g>
    <g  id="143" 
        transform = "matrix( 1.000000 0.000000 0.000000 1.000000 185.000000 50.000000 )" 
        style = "  fill:#00C3BB;  stroke:none;  " >

        <rect x="0.000000" y="0.000000" width="3.000000" height="140.000000" /> 
    </g>
    <g  id="144" 
        transform = "matrix( 1.000000 0.000000 0.000000 1.000000 195.000000 50.000000 )" 
        style = "  fill:#00CDC5;  stroke:none;  " >

        <rect x="0.000000" y="0.000000" width="3.000000" height="140.000000" /> 
    </g>
    <g  id="145" 
        transform = "matrix( 1.000000 0.000000 0.000000 1.000000 205.000000 50.000000 )" 
        style = "  fill:#00D7CF;  stroke:none;  " >

        <rect x="0.000000" y="0.000000" width="3.000000" height="140.000000" /> 
    </g>
    <g  id="146" 
        transform = "matrix( 1.000000 0.000000 0.000000 1.000000 215.000000 50.000000 )" 
        style = "  fill:#00E1D9;  stroke:none;  " >

        <rect x="0.000000" y="0.000000" width="3.000000" height="140.000000" /> 
    </g>
    <g  id="147" 
        transform = "matrix( 1.000000 0.000000 0.000000 1.000000 225.000000 50.000000 )" 
        style = "  fill:#00EBE3;  stroke:none;  " >

        <rect x="0.000000" y="0.000000" width="3.000000" height="140.000000" /> 
    </g>
    <g  id="148" 
        transform = "matrix( 1.000000 0.000000 0.000000 1.000000 235.000000 50.000000 )" 
        style = "  fill:#00F5ED;  stroke:none;  " >

        <rect x="0.000000" y="0.000000" width="3.000000" height="140.000000" /> 
    </g>
    <g  id="149" 
        transform = "matrix( 1.000000 0.000000 0.000000 1.000000 245.000000 50.000000 )" 
        style = "  fill:#00FFF7;  stroke:none;  " >

        <rect x="0.000000" y="0.000000" width="3.000000" height="140.000000" /> 
    </g>
    <g  id="150" 
        transform = "matrix( 1.000000 0.000000 0.000000 1.000000 255.000000 50.000000 )" 
        style = "  fill:#000901;  stroke:none;  " >

        <rect x="0.000000" y="0.000000" width="3.000000" height="140.000000" /> 
    </g>
    <g  id="151" 
        transform = "matrix( 1.000000 0.000000 0.000000 1.000000 265.000000 50.000000 )" 
        style = "  fill:#00130B;  stroke:none;  " >

        <rect x="0.000000" y="0.000000" width="3.000000" height="140.000000" /> 
    </g>
    <g  id="152" 
        transform = "matrix( 1.000000 0.000000 0.000000 1.000000 275.000000 50.000000 )" 
        style = "  fill:#001D15;  stroke:none;  " >

        <rect x="0.000000" y="0.000000" width="3.000000" height="140.000000" /> 
    </g>
    <g  id="153" 
        transform = "matrix( 1.000000 0.000000 0.000000 1.000000 285.000000 50.000000 )" 
        style = "  fill:#00271F;  stroke:none;  " >

        <rect x="0.000000" y="0.000000" width="3.000000" height="140.000000" /> 
    </g>
    <g  id="154" 
        transform = "matrix( 1.000000 0.000000 0.000000 1.000000 295.000000 50.000000 )" 
        style = "  fill:#003129;  stroke:none;  " >

        <rect x="0.000000" y="0.000000" width="3.000000" height="140.000000" /> 
    </g>
    <g  id="160" 
        style = "  fill:#000000;  stroke:#FC0016; stroke-width:20.000000;  " >

        <path d="M-600.000000 400.000000 L400.000000 300.000000" /> 
    </g>
    <g  id="163" 
        transform = "matrix( 1.000000 0.000000 0.000000 1.000000 -480.000000 450.000000 )" 
        style = "  fill:#00FFFF;  stroke:#787878; stroke-width:0.000000;  " >

        <text x="0.000000" y="0.000000" style="font-family:Verdana; font-size:80.000000;" > 
        Hello wxCanvasWorld
        </text>
    </g>
    <g  id="164" 
        transform = "matrix( 1.000000 0.000000 0.000000 1.000000 -480.000000 -250.000000 )" 
        style = "  fill:#007802;  stroke:#787878; stroke-width:0.000000;  " >

        <text x="0.000000" y="0.000000" style="font-family:Verdana; " > 
        <html><head><title>VFS Demo</title></head><body BGCOLOR="#FFFFFF" text="#00FFFF"><h1>Virtual File</h1> <h3><b>Virtual File Systems demonstration</b></h3><p><FONT COLOR="#FF0000"> Hello. This sample demonstrates VFS. Try the link (and have a lookat status bar before clicking on them)</FONT></p><b>Enter top level Node...</b></body></html>
        </text>
    </g>
    <g  id="165" 
        transform = "matrix( 0.906308 0.422618 -0.422618 0.906308 -80.000000 450.000000 )" 
        style = "  fill:none;  stroke:#00FF00; stroke-width:0.000000;  " >

        <text x="0.000000" y="0.000000" style="font-family:Verdana; font-size:80.000000;" > 
        Multiple line
 Hello rotated 
text in wxCanvasWorld
        </text>
    </g>
    <g  id="166" 
        transform = "matrix( 1.000000 0.000000 0.000000 1.000000 200.000000 0.000000 )" 
        style = "  fill:#DBD706;  stroke:#FA00F0; stroke-width:1.000000;  " >

        <text x="0.000000" y="0.000000" style="font-family:Verdana; font-size:100.000000;" > 
        Hello wat is dit
        </text>
    </g>
    <g  id="167" 
        transform = "matrix( 1.000000 0.000000 0.000000 1.000000 180.000000 10.000000 )" 
        style = "  fill:#000000;  stroke:#FA00F0; stroke-width:1.000000;  " >

        <text x="0.000000" y="0.000000" style="font-family:Verdana; font-size:8.000000;" > 
        How are you?
        </text>
    </g>
    <g  id="168" 
        transform = "matrix( 1.000000 0.000000 0.000000 1.000000 180.000000 20.000000 )" 
        style = "  fill:#000000;  stroke:#FA00F0; stroke-width:1.000000;  " >

        <text x="0.000000" y="0.000000" style="font-family:Verdana; font-size:10.000000;" > 
        How are you?
        </text>
    </g>
    <g  id="169" 
        transform = "matrix( 1.000000 0.000000 0.000000 1.000000 180.000000 30.000000 )" 
        style = "  fill:#000000;  stroke:#FA00F0; stroke-width:1.000000;  " >

        <text x="0.000000" y="0.000000" style="font-family:Verdana; font-size:12.000000;" > 
        How are you?
        </text>
    </g>
    <g  id="170" 
        transform = "matrix( 1.000000 0.000000 0.000000 1.000000 0.000000 210.000000 )" 
        style = "  fill:#000000;  stroke:#FA00F0; stroke-width:1.000000;  " >


         <image x="-16.000000" y="-16.000000" width="32.000000" height="32.000000" xlink:href="170" >  
         </image>

    </g>
    <g  id="171" 
        style = "  fill:#000000;  stroke:#FC00FC; stroke-width:0.000000;  " >

        <path d="M10.000000 -15.000000 L10.000000 300.000000" /> 
    </g>
    <g  id="172" 
        style = "  fill:#000000;  stroke:#FC00FC; stroke-width:0.000000;  " >

        <path d="M10.000000 -15.000000 L20.000000 300.000000" /> 
    </g>
    <g  id="173" 
        style = "  fill:#000000;  stroke:#FC00FC; stroke-width:0.000000;  " >

        <path d="M10.000000 -15.000000 L30.000000 300.000000" /> 
    </g>
    <g  id="174" 
        style = "  fill:#000000;  stroke:#FC00FC; stroke-width:0.000000;  " >

        <path d="M10.000000 -15.000000 L40.000000 300.000000" /> 
    </g>
    <g  id="175" 
        style = "  fill:#000000;  stroke:#FC00FC; stroke-width:0.000000;  " >

        <path d="M10.000000 -15.000000 L50.000000 300.000000" /> 
    </g>
    <g  id="176" 
        style = "  fill:#000000;  stroke:#FC00FC; stroke-width:0.000000;  " >

        <path d="M10.000000 -15.000000 L60.000000 300.000000" /> 
    </g>
    <g  id="177" 
        style = "  fill:#000000;  stroke:#FC00FC; stroke-width:0.000000;  " >

        <path d="M10.000000 -15.000000 L70.000000 300.000000" /> 
    </g>
    <g  id="178" 
        style = "  fill:#000000;  stroke:#FC00FC; stroke-width:0.000000;  " >

        <path d="M10.000000 -15.000000 L80.000000 300.000000" /> 
    </g>
    <g  id="179" 
        style = "  fill:#000000;  stroke:#FC00FC; stroke-width:0.000000;  " >

        <path d="M10.000000 -15.000000 L90.000000 300.000000" /> 
    </g>
    <g  id="180" 
        style = "  fill:#000000;  stroke:#FC00FC; stroke-width:0.000000;  " >

        <path d="M10.000000 -15.000000 L100.000000 300.000000" /> 
    </g>
    <g  id="181" 
        style = "  fill:#000000;  stroke:#FC00FC; stroke-width:0.000000;  " >

        <path d="M10.000000 -15.000000 L110.000000 300.000000" /> 
    </g>
    <g  id="182" 
        style = "  fill:#000000;  stroke:#FC00FC; stroke-width:0.000000;  " >

        <path d="M10.000000 -15.000000 L120.000000 300.000000" /> 
    </g>
    <g  id="183" 
        style = "  fill:#000000;  stroke:#FC00FC; stroke-width:0.000000;  " >

        <path d="M10.000000 -15.000000 L130.000000 300.000000" /> 
    </g>
    <g  id="184" 
        style = "  fill:#000000;  stroke:#FC00FC; stroke-width:0.000000;  " >

        <path d="M10.000000 -15.000000 L140.000000 300.000000" /> 
    </g>
    <g  id="185" 
        style = "  fill:#000000;  stroke:#FC00FC; stroke-width:0.000000;  " >

        <path d="M10.000000 -15.000000 L150.000000 300.000000" /> 
    </g>
    <g  id="186" 
        style = "  fill:#000000;  stroke:#FC00FC; stroke-width:0.000000;  " >

        <path d="M10.000000 -15.000000 L160.000000 300.000000" /> 
    </g>
    <g  id="187" 
        style = "  fill:#000000;  stroke:#FC00FC; stroke-width:0.000000;  " >

        <path d="M10.000000 -15.000000 L170.000000 300.000000" /> 
    </g>
    <g  id="188" 
        style = "  fill:#000000;  stroke:#FC00FC; stroke-width:0.000000;  " >

        <path d="M10.000000 -15.000000 L180.000000 300.000000" /> 
    </g>
    <g  id="189" 
        style = "  fill:#000000;  stroke:#FC00FC; stroke-width:0.000000;  " >

        <path d="M10.000000 -15.000000 L190.000000 300.000000" /> 
    </g>
    <g  id="190" 
        style = "  fill:#000000;  stroke:#FC00FC; stroke-width:0.000000;  " >

        <path d="M10.000000 -15.000000 L200.000000 300.000000" /> 
    </g>
    <g  id="191" 
        style = "  fill:#000000;  stroke:#FC00FC; stroke-width:0.000000;  " >

        <path d="M10.000000 -15.000000 L210.000000 300.000000" /> 
    </g>
    <g  id="192" 
        style = "  fill:#000000;  stroke:#FC00FC; stroke-width:0.000000;  " >

        <path d="M10.000000 -15.000000 L220.000000 300.000000" /> 
    </g>
    <g  id="193" 
        style = "  fill:#000000;  stroke:#FC00FC; stroke-width:0.000000;  " >

        <path d="M10.000000 -15.000000 L230.000000 300.000000" /> 
    </g>
    <g  id="194" 
        style = "  fill:#000000;  stroke:#FC00FC; stroke-width:0.000000;  " >

        <path d="M10.000000 -15.000000 L240.000000 300.000000" /> 
    </g>
    <g  id="195" 
        style = "  fill:#000000;  stroke:#FC00FC; stroke-width:0.000000;  " >

        <path d="M10.000000 -15.000000 L250.000000 300.000000" /> 
    </g>
    <g  id="196" 
        style = "  fill:#000000;  stroke:#FC00FC; stroke-width:0.000000;  " >

        <path d="M10.000000 -15.000000 L260.000000 300.000000" /> 
    </g>
    <g  id="197" 
        style = "  fill:#000000;  stroke:#FC00FC; stroke-width:0.000000;  " >

        <path d="M10.000000 -15.000000 L270.000000 300.000000" /> 
    </g>
    <g  id="198" 
        style = "  fill:#000000;  stroke:#FC00FC; stroke-width:0.000000;  " >

        <path d="M10.000000 -15.000000 L280.000000 300.000000" /> 
    </g>
    <g  id="199" 
        style = "  fill:#000000;  stroke:#FC00FC; stroke-width:0.000000;  " >

        <path d="M10.000000 -15.000000 L290.000000 300.000000" /> 
    </g>
    <g  id="200" 
        style = "  fill:#000000;  stroke:#FC00FC; stroke-width:20.000000;  " >

        <path d="M-600.000000 600.000000 L400.000000 -600.000000" />
        <g transform = "matrix( -0.640184 0.768221 -0.768221 -0.640184 400.000000 -600.000000 )" >
        <g  id="201" 
            style = "  fill:#DBD706;  stroke:#0103CD; stroke-width:30.000000;  " >

            <circle cx="0.000000" cy="0.000000" r="30.000000" /> 
        </g>
        </g>
    </g>
    <g  id="202" 
        style = "  fill:#000000;  stroke:#FC00FC; stroke-width:6.000000;  " >

        <path d="M-700.000000 700.000000 L0.000000 -600.000000" />
        <g transform = "matrix( -0.474100 0.880471 -0.880471 -0.474100 0.000000 -600.000000 )" >
        <g  id="203" 
            style = "  fill:#DBD706;  stroke:#0103CD; stroke-width:6.000000;  " >

            <polygon style=" fill-rule:nonzero;  	"
            points="
                0.000000,0.000000
                140.000000,35.000000
                90.000000,0.000000
                140.000000,-35.000000
                0.000000,0.000000
            " /> 
        </g>
        </g>
    </g>
    <g  id="226" 
        transform = "matrix( 1.000000 0.000000 0.000000 1.000000 200.000000 -50.000000 )" 
        style = "  fill:#000000;  stroke:#000000; stroke-width:0.000000;  " >

        <radialGradient id="224" gradientUnits = "userSpaceOnUse"
         cx="50.000000" cy="100.000000" r="450.000000" fx="0.000000" fy="0.000000" >
            <stop offset="0" style="stop-color:#0000FF"/>
            <stop offset="1" style="stop-color:#FF0000"/>
        </radialGradient>
        
        <g  id="223" 
            style = "  fill-rule:nonzero; fill:url(#224);  stroke:#0A1119; stroke-width:16.000000;  " >

            <polygon style=" fill-rule:nonzero; "

            points="
            -125.000000,2.500000 -119.604492,11.866455 -114.355469,21.059570 -109.252930,30.079346 -104.296875,38.925781 -99.487305,47.598877 
            -94.824219,56.098633 -90.307617,64.425049 -85.937500,72.578125 -81.713867,80.557861 -77.636719,88.364258 -73.706055,95.997314 
            -69.921875,103.457031 -66.284180,110.743408 -62.792969,117.856445 -59.448242,124.796143 -56.250000,131.562500 -53.198242,138.155518 
            -50.292969,144.575195 -47.534180,150.821533 -44.921875,156.894531 -42.456055,162.794189 -40.136719,168.520508 -37.963867,174.073486 
            -35.937500,179.453125 -34.057617,184.659424 -32.324219,189.692383 -30.737305,194.552002 -29.296875,199.238281 -26.855469,208.090820 
            -25.000000,216.250000 -23.730469,223.715820 -23.046875,230.488281 -22.949219,236.567383 -23.437500,241.953125 -26.171875,250.644531 
            -31.250000,256.562500 -38.671875,259.707031 -48.437500,260.078125 -54.199219,259.223633 -60.546875,257.675781 -67.480469,255.434570 
            -75.000000,252.500000 -82.592773,249.416504 -89.746094,246.728516 -96.459961,244.436035 -102.734375,242.539062 -108.569336,241.037598 
            -113.964844,239.931641 -118.920898,239.221191 -123.437500,238.906250 -131.152344,239.462891 -137.109375,241.601562 -141.308594,245.322266 
            -143.750000,250.625000 -144.433594,257.509766 -143.359375,265.976562 -142.163086,270.803223 -140.527344,276.025391 -138.452148,281.643066 
            -135.937500,287.656250 -132.983398,294.064941 -129.589844,300.869141 -125.756836,308.068848 -121.484375,315.664062 -116.772461,323.654785 
            -111.621094,332.041016 -106.030273,340.822754 -100.000000,350.000000 -93.701172,359.082031 -87.304688,367.578125 -80.810547,375.488281 
            -74.218750,382.812500 -67.529297,389.550781 -60.742188,395.703125 -53.857422,401.269531 -46.875000,406.250000 -39.794922,410.644531 
            -32.617188,414.453125 -25.341797,417.675781 -17.968750,420.312500 -10.498047,422.363281 -2.929688,423.828125 4.736328,424.707031 
            12.500000,425.000000 20.361328,424.707031 28.320312,423.828125 36.376953,422.363281 44.531250,420.312500 52.783203,417.675781 
            61.132812,414.453125 69.580078,410.644531 78.125000,406.250000 86.767578,401.269531 95.507812,395.703125 104.345703,389.550781 
            113.281250,382.812500 122.314453,375.488281 131.445312,367.578125 140.673828,359.082031 150.000000,350.000000 158.935547,340.527344 
            166.992188,330.859375 170.690918,325.952148 174.169922,320.996094 177.429199,315.991211 180.468750,310.937500 183.288574,305.834961 
            185.888672,300.683594 188.269043,295.483398 190.429688,290.234375 192.370605,284.936523 194.091797,279.589844 195.593262,274.194336 
            196.875000,268.750000 197.937012,263.256836 198.779297,257.714844 199.401855,252.124023 199.804688,246.484375 199.987793,240.795898 
            199.951172,235.058594 199.694824,229.272461 199.218750,223.437500 198.522949,217.553711 197.607422,211.621094 196.472168,205.639648 
            195.117188,199.609375 193.542480,193.530273 191.748047,187.402344 189.733887,181.225586 187.500000,175.000000 185.046387,168.725586 
            182.373047,162.402344 179.479980,156.030273 176.367188,149.609375 173.034668,143.139648 169.482422,136.621094 165.710449,130.053711 
            161.718750,123.437500 157.507324,116.772461 153.076172,110.058594 148.425293,103.295898 143.554688,96.484375 138.464355,89.624023 
            133.154297,82.714844 127.624512,75.756836 121.875000,68.750000 115.905762,61.694336 109.716797,54.589844 103.308105,47.436523 
            96.679688,40.234375 89.831543,32.983398 82.763672,25.683594 75.476074,18.334961 67.968750,10.937500 60.241699,3.491211 
            52.294922,-4.003906 44.128418,-11.547852 35.742188,-19.140625 27.136230,-26.782227 18.310547,-34.472656 9.265137,-42.211914 
            0.000000,-50.000000 -9.259033,-57.677612 -18.286133,-65.085449 -27.081299,-72.223511 -35.644531,-79.091797 -43.975830,-85.690308 
            -52.075195,-92.019043 -59.942627,-98.078003 -67.578125,-103.867188 -74.981689,-109.386597 -82.153320,-114.636230 -89.093018,-119.616089 
            -95.800781,-124.326172 -102.276611,-128.766479 -108.520508,-132.937012 -114.532471,-136.837769 -120.312500,-140.468750 -125.860596,-143.829956 
            -131.176758,-146.921387 -136.260986,-149.743042 -141.113281,-152.294922 -150.122070,-156.589355 -158.203125,-159.804688 -165.356445,-161.940918 
            -171.582031,-162.998047 -176.879883,-162.976074 -181.250000,-161.875000 -187.207031,-156.435547 -189.453125,-146.679688 -189.184570,-140.183105 
            -187.988281,-132.607422 -185.864258,-123.952637 -182.812500,-114.218750 -180.938721,-108.947144 -178.833008,-103.405762 -176.495361,-97.594604 
            -173.925781,-91.513672 -171.124268,-85.162964 -168.090820,-78.542480 -164.825439,-71.652222 -161.328125,-64.492188 -157.598877,-57.062378 
            -153.637695,-49.362793 -149.444580,-41.393433 -145.019531,-33.154297 -140.362549,-24.645386 -135.473633,-15.866699 -130.352783,-6.818237 
            " /> 
        </g>
    </g>
    <g  id="227" 
        transform = "matrix( -2.000000 0.000000 0.000000 -3.200000 350.000000 -200.000000 )" 
        style = "  fill:#000000;  stroke:#000000; stroke-width:0.000000;  " >

        <a xlink:href = "groupswitheventhandling.html#groups" id="204" 
            transform = "matrix( 1.000000 0.000000 0.000000 1.000000 -130.000000 -123.000000 )" 
            style = "  fill:#000000;  stroke:#FA00F0; stroke-width:1.000000;  " >

        <g  id="221" 
            style = "  fill:#FA4ED8;  stroke:#FF0000; stroke-width:4.000000;  " >

            <polygon style=" fill-rule:nonzero;  "
            points="
            -100.000000,25.000000 -93.994141,23.510742 -88.476562,22.167969 -83.447266,20.971680 -78.906250,19.921875 -71.289062,18.261719 
            -65.625000,17.187500 -60.156250,16.796875 -62.500000,18.750000 -66.601562,20.605469 -72.656250,23.046875 -80.664062,26.074219 
            -90.625000,29.687500 -96.337891,31.713867 -102.539062,33.886719 -109.228516,36.206055 -116.406250,38.671875 -124.072266,41.284180 
            -132.226562,44.042969 -140.869141,46.948242 -150.000000,50.000000 -159.130859,53.076172 -167.773438,56.054688 -175.927734,58.935547 
            -183.593750,61.718750 -190.771484,64.404297 -197.460938,66.992188 -203.662109,69.482422 -209.375000,71.875000 -219.335938,76.367188 
            -227.343750,80.468750 -233.398438,84.179688 -237.500000,87.500000 -239.843750,92.968750 -234.375000,96.875000 -228.710938,98.242188 
            -221.093750,99.218750 -216.552734,99.560547 -211.523438,99.804688 -206.005859,99.951172 -200.000000,100.000000 -193.847656,99.951172 
            -187.890625,99.804688 -182.128906,99.560547 -176.562500,99.218750 -171.191406,98.779297 -166.015625,98.242188 -161.035156,97.607422 
            -156.250000,96.875000 -147.265625,95.117188 -139.062500,92.968750 -131.640625,90.429688 -125.000000,87.500000 -119.140625,84.179688 
            -114.062500,80.468750 -109.765625,76.367188 -106.250000,71.875000 -103.515625,66.992188 -101.562500,61.718750 -100.390625,56.054688 
            -100.000000,50.000000 -100.195312,44.042969 -100.781250,38.671875 -101.757812,33.886719 -103.125000,29.687500 -107.031250,23.046875 
            -112.500000,18.750000 -119.531250,16.796875 -128.125000,17.187500 -133.007812,18.261719 -138.281250,19.921875 -143.945312,22.167969 
            -150.000000,25.000000 -155.664062,27.929688 -160.156250,30.468750 -163.476562,32.617188 -165.625000,34.375000 -166.406250,36.718750 
            -162.500000,37.500000 -158.789062,37.304688 -153.906250,36.718750 -147.851562,35.742188 -140.625000,34.375000 -132.226562,32.617188 
            -122.656250,30.468750 -117.431641,29.248047 -111.914062,27.929688 -106.103516,26.513672 
            " /> 

        </g>
        <g  id="220" 
            style = "  fill:#6411FF;  stroke:#097340; stroke-width:4.000000;  " >

            <polygon style=" fill-rule:nonzero; "

            points="
            -30.000000,-20.000000 100.000000,0.000000 100.000000,100.000000 50.000000,150.000000 0.000000,100.000000 
            " /> 
        </g>
        <g  id="219" 
            transform = "matrix( 1.000000 0.000000 0.000000 1.000000 60.000000 50.000000 )" 
            style = "  fill:#000000;  stroke:#000000; stroke-width:0.000000;  " >

            <g  id="216" 
                style = "  fill:#000000;  stroke:#FA00F0; stroke-width:1.000000;  " >

            <g  id="218" 
                transform = "matrix( 1.000000 0.000000 0.000000 1.000000 10.000000 20.000000 )" 
                style = "  fill:#0A11FF;  stroke:#097340; stroke-width:4.000000;  " >

                <rect x="0.000000" y="0.000000" width="104.000000" height="52.000000" rx="30.00" /> 
            </g>
            <g  id="217" 
                transform = "matrix( 1.000000 0.000000 0.000000 1.000000 60.000000 38.000000 )" 
                style = "  fill:#000000;  stroke:#FA00F0; stroke-width:1.000000;  " >


                 <image x="-26.000000" y="-16.000000" width="52.000000" height="32.000000" xlink:href="217" >  
                 </image>

            </g>
            </g>
        </g>
        <g  id="214" 
            style = "  fill:#00F0F0;  stroke:#D22832; stroke-width:1.000000;  " >

            <rect x="0.000000" y="0.000000" width="104.000000" height="52.000000" /> 
        </g>
        <g  id="213" 
            transform = "matrix( 1.000000 0.000000 0.000000 1.000000 20.000000 -20.000000 )" 
            style = "  fill:#0078F0;  stroke:#FC36FC; stroke-width:3.000000;  " >

            <rect x="0.000000" y="0.000000" width="50.000000" height="170.000000" rx="30.00" /> 
        </g>
        <g  id="210" 
            transform = "matrix( 1.000000 0.000000 0.000000 1.000000 4.000000 38.000000 )" 
            style = "  fill:#000000;  stroke:#FA00F0; stroke-width:1.000000;  " >


             <image x="-16.000000" y="-16.000000" width="32.000000" height="32.000000" xlink:href="210" >  
             </image>

        </g>
        <g  id="209" 
            style = "  fill:#000000;  stroke:#FFA105; stroke-width:5.000000;  " >

            <path d="M10.000000 -85.000000 L50.000000 230.000000" />
            <g transform = "matrix( -0.125973 -0.992034 0.992034 -0.125973 50.000000 230.000000 )" >
            <g  id="208" 
                style = "  fill:#DBD706;  stroke:#0103CD; stroke-width:5.000000;  " >

                <polygon style=" fill-rule:nonzero;  	"
                points="
                    0.000000,0.000000
                    40.000000,10.000000
                    0.000000,0.000000
                    40.000000,-10.000000
                    0.000000,0.000000
                " /> 
            </g>
            </g>
        </g>
        <a xlink:href = "./index.html" id="211" 
            style = "  fill:#DBD706;  stroke:#0103CD; stroke-width:3.000000;  " >

            <circle cx="0.000000" cy="0.000000" r="30.000000" /> 
        </a>
        <g  id="219" 
            transform = "matrix( 1.000000 0.000000 0.000000 1.000000 60.000000 50.000000 )" 
            style = "  fill:#000000;  stroke:#000000; stroke-width:0.000000;  " >

        </g>
        </a>
    </g>
    <a xlink:href = "groupswitheventhandling.html#groups" id="204" 
        transform = "matrix( 1.000000 0.000000 0.000000 1.000000 -130.000000 -123.000000 )" 
        style = "  fill:#000000;  stroke:#FA00F0; stroke-width:1.000000;  " >

    <g  id="221" 
        style = "  fill:#FA4ED8;  stroke:#FF0000; stroke-width:4.000000;  " >

        <polygon style=" fill-rule:nonzero;  "
        points="
        -100.000000,25.000000 -93.994141,23.510742 -88.476562,22.167969 -83.447266,20.971680 -78.906250,19.921875 -71.289062,18.261719 
        -65.625000,17.187500 -60.156250,16.796875 -62.500000,18.750000 -66.601562,20.605469 -72.656250,23.046875 -80.664062,26.074219 
        -90.625000,29.687500 -96.337891,31.713867 -102.539062,33.886719 -109.228516,36.206055 -116.406250,38.671875 -124.072266,41.284180 
        -132.226562,44.042969 -140.869141,46.948242 -150.000000,50.000000 -159.130859,53.076172 -167.773438,56.054688 -175.927734,58.935547 
        -183.593750,61.718750 -190.771484,64.404297 -197.460938,66.992188 -203.662109,69.482422 -209.375000,71.875000 -219.335938,76.367188 
        -227.343750,80.468750 -233.398438,84.179688 -237.500000,87.500000 -239.843750,92.968750 -234.375000,96.875000 -228.710938,98.242188 
        -221.093750,99.218750 -216.552734,99.560547 -211.523438,99.804688 -206.005859,99.951172 -200.000000,100.000000 -193.847656,99.951172 
        -187.890625,99.804688 -182.128906,99.560547 -176.562500,99.218750 -171.191406,98.779297 -166.015625,98.242188 -161.035156,97.607422 
        -156.250000,96.875000 -147.265625,95.117188 -139.062500,92.968750 -131.640625,90.429688 -125.000000,87.500000 -119.140625,84.179688 
        -114.062500,80.468750 -109.765625,76.367188 -106.250000,71.875000 -103.515625,66.992188 -101.562500,61.718750 -100.390625,56.054688 
        -100.000000,50.000000 -100.195312,44.042969 -100.781250,38.671875 -101.757812,33.886719 -103.125000,29.687500 -107.031250,23.046875 
        -112.500000,18.750000 -119.531250,16.796875 -128.125000,17.187500 -133.007812,18.261719 -138.281250,19.921875 -143.945312,22.167969 
        -150.000000,25.000000 -155.664062,27.929688 -160.156250,30.468750 -163.476562,32.617188 -165.625000,34.375000 -166.406250,36.718750 
        -162.500000,37.500000 -158.789062,37.304688 -153.906250,36.718750 -147.851562,35.742188 -140.625000,34.375000 -132.226562,32.617188 
        -122.656250,30.468750 -117.431641,29.248047 -111.914062,27.929688 -106.103516,26.513672 
        " /> 

    </g>
    <g  id="220" 
        style = "  fill:#6411FF;  stroke:#097340; stroke-width:4.000000;  " >

        <polygon style=" fill-rule:nonzero; "

        points="
        -30.000000,-20.000000 100.000000,0.000000 100.000000,100.000000 50.000000,150.000000 0.000000,100.000000 
        " /> 
    </g>
    <g  id="219" 
        transform = "matrix( 1.000000 0.000000 0.000000 1.000000 60.000000 50.000000 )" 
        style = "  fill:#000000;  stroke:#000000; stroke-width:0.000000;  " >

        <g  id="216" 
            style = "  fill:#000000;  stroke:#FA00F0; stroke-width:1.000000;  " >

        <g  id="218" 
            transform = "matrix( 1.000000 0.000000 0.000000 1.000000 10.000000 20.000000 )" 
            style = "  fill:#0A11FF;  stroke:#097340; stroke-width:4.000000;  " >

            <rect x="0.000000" y="0.000000" width="104.000000" height="52.000000" rx="30.00" /> 
        </g>
        <g  id="217" 
            transform = "matrix( 1.000000 0.000000 0.000000 1.000000 60.000000 38.000000 )" 
            style = "  fill:#000000;  stroke:#FA00F0; stroke-width:1.000000;  " >


             <image x="-26.000000" y="-16.000000" width="52.000000" height="32.000000" xlink:href="217" >  
             </image>

        </g>
        </g>
    </g>
    <g  id="214" 
        style = "  fill:#00F0F0;  stroke:#D22832; stroke-width:1.000000;  " >

        <rect x="0.000000" y="0.000000" width="104.000000" height="52.000000" /> 
    </g>
    <g  id="213" 
        transform = "matrix( 1.000000 0.000000 0.000000 1.000000 20.000000 -20.000000 )" 
        style = "  fill:#0078F0;  stroke:#FC36FC; stroke-width:3.000000;  " >

        <rect x="0.000000" y="0.000000" width="50.000000" height="170.000000" rx="30.00" /> 
    </g>
    <g  id="210" 
        transform = "matrix( 1.000000 0.000000 0.000000 1.000000 4.000000 38.000000 )" 
        style = "  fill:#000000;  stroke:#FA00F0; stroke-width:1.000000;  " >


         <image x="-16.000000" y="-16.000000" width="32.000000" height="32.000000" xlink:href="210" >  
         </image>

    </g>
    <g  id="209" 
        style = "  fill:#000000;  stroke:#FFA105; stroke-width:5.000000;  " >

        <path d="M10.000000 -85.000000 L50.000000 230.000000" />
        <g transform = "matrix( -0.125973 -0.992034 0.992034 -0.125973 50.000000 230.000000 )" >
        <g  id="208" 
            style = "  fill:#DBD706;  stroke:#0103CD; stroke-width:5.000000;  " >

            <polygon style=" fill-rule:nonzero;  	"
            points="
                0.000000,0.000000
                40.000000,10.000000
                0.000000,0.000000
                40.000000,-10.000000
                0.000000,0.000000
            " /> 
        </g>
        </g>
    </g>
    <a xlink:href = "./index.html" id="211" 
        style = "  fill:#DBD706;  stroke:#0103CD; stroke-width:3.000000;  " >

        <circle cx="0.000000" cy="0.000000" r="30.000000" /> 
    </a>
    <g  id="219" 
        transform = "matrix( 1.000000 0.000000 0.000000 1.000000 60.000000 50.000000 )" 
        style = "  fill:#000000;  stroke:#000000; stroke-width:0.000000;  " >

    </g>
    </a>
    <g  id="243" 
        transform = "matrix( 1.000000 0.000000 0.000000 1.000000 500.000000 -500.000000 )" 
        style = "  fill:#000000;  stroke:#000000; stroke-width:0.000000;  " >

    </g>
    <g  id="238" 
        transform = "matrix( 1.000000 0.000000 0.000000 1.000000 200.000000 0.000000 )" 
        style = "  fill:#000000;  stroke:#000000; stroke-width:0.000000;  " >

    </g>
    <g  id="229" 
        transform = "matrix( 0.965926 0.258819 -0.258819 0.965926 20.000000 130.000000 )" 
        style = "  fill:#000000;  stroke:#000000; stroke-width:0.000000;  " >

    </g>
    <g  id="228" 
        transform = "matrix( 0.819152 -0.573576 0.573576 0.819152 80.000000 450.000000 )" 
        style = "  fill:#000000;  stroke:#000000; stroke-width:0.000000;  " >

    </g>
    <g  id="225" 
        transform = "matrix( 1.000000 0.000000 0.000000 1.000000 0.000000 -200.000000 )" 
        style = "  fill:#000000;  stroke:#000000; stroke-width:0.000000;  " >

    </g>
    <g  id="96" 
        transform = "matrix( 1.000000 0.000000 0.000000 1.000000 110.000000 350.000000 )" 
        style = "  fill:#0078F0;  stroke:#097340; stroke-width:10.000000;  " >

        <rect x="0.000000" y="0.000000" width="400.000000" height="140.000000" rx="100.00" /> 
    </g>
    <g  id="226" 
        transform = "matrix( 1.000000 0.000000 0.000000 1.000000 200.000000 -50.000000 )" 
        style = "  fill:#000000;  stroke:#000000; stroke-width:0.000000;  " >

    </g>
    <g  id="227" 
        transform = "matrix( -2.000000 0.000000 0.000000 -3.200000 350.000000 -200.000000 )" 
        style = "  fill:#000000;  stroke:#000000; stroke-width:0.000000;  " >

    </g>
    </g>
</svg> 
