<?xml version="1.0"?>
<!DOCTYPE svg PUBLIC "-//W3C//DTD SVG 1.1//EN" 
         "http://www.w3.org/Graphics/SVG/1.1/DTD/svg11.dtd">
<svg xmlns="http://www.w3.org/2000/svg"
     xmlns:xlink="http://www.w3.org/1999/xlink"
     width="10.00cm" height="10.00cm" viewBox="-3140.118804 928.715060 2687.011311 2421.879265 "> 
<title> C:\wxwin\wx2b31\contrib\samples\canvas\editor\vdrawm\klaas3.svg </title>
<desc>Picture generated by wxCanvas</desc>
<g style="fill:black; stroke:black; stroke-width:1"></g>
<g transform = "scale( 1,-1)">
    <g  id="3" 
        style = "  fill:#000000;  stroke:#000000; stroke-width:0.000000;  " >

        <g  id="34" 
            transform = "matrix( 1.000000,0.000000,0.000000,1.000000,-2716.531873,2403.545422 )" 
            style = "  fill:#0075F5;  stroke:#E50540; stroke-width:0.000000;  " >

        <g transform = "matrix( 1.000000 0.000000 0.000000 1.000000 -2716.531873 2403.545422 )" > 
        </g>
        </g>
        <g  id="38" 
            transform = "matrix( 1.000000 0.000000 0.000000 1.000000 -1259.750563 1472.761356 )" 
            style = "  fill:#0075F5;  stroke:#DC0405; stroke-width:0.000000;  " >

        <g transform = "matrix( 1.000000 0.000000 0.000000 1.000000 -1259.750563 1472.761356 )" > 
        </g>
        </g>
        <g  id="40" 
            transform = "matrix( 1.000000 0.000000 0.000000 1.000000 -2180.188034 2872.535757 )" 
            style = "  fill:#0075F5;  stroke:#DC0405; stroke-width:0.000000;  " >

        <g transform = "matrix( 1.000000 0.000000 0.000000 1.000000 -2180.188034 2872.535757 )" > 
        </g>
        </g>
        <g  id="42" 
            transform = "matrix( 1.000000 0.000000 0.000000 1.000000 -3313.653922 2852.849413 )" 
            style = "  fill:#001535;  stroke:#DC0405; stroke-width:0.000000;  " >

        <g transform = "matrix( 1.000000 0.000000 0.000000 1.000000 -3313.653922 2852.849413 )" > 
        </g>
        </g>
        <g  id="34" 
            transform = "matrix( 1.000000 0.000000 0.000000 1.000000 -2716.531873 2403.545422 )" 
            style = "  fill:#0075F5;  stroke:#E50540; stroke-width:0.000000;  " >

            <g  id="35" 
                style = "  fill:#000000;  stroke:#FA00F0; stroke-width:1.000000;  " >

                <rect x="0.000000" y="0.000000" width="900.000000" height="80.000000" /> 
            </g>
            <g  id="36" 
                style = "  fill:#000000;  stroke:#FA00F0; stroke-width:1.000000;  " >

                <circle cx="0.000000" cy="0.000000" r="151.494024" /> 
            </g>
            <g  id="37" 
                style = "  fill:#000000;  stroke:#FA00F0; stroke-width:1.000000;  " >

                <ellipse cx="0.000000" cy="0.000000" rx="367.968750" ry="96.093750" /> 
            </g>
        <g transform = "matrix( 1.000000 0.000000 0.000000 1.000000 -2716.531873 2403.545422 )" > 
        </g>
        </g>
        <g  id="38" 
            transform = "matrix( 1.000000 0.000000 0.000000 1.000000 -1259.750563 1472.761356 )" 
            style = "  fill:#0075F5;  stroke:#DC0405; stroke-width:0.000000;  " >

            <g  id="39" 
                transform = "matrix( 1.000000 0.000000 0.000000 1.000000 0.000000 500.000000 )" 
                style = "  fill:#0075F5;  stroke:#000405; stroke-width:0.000000;  " >

                <circle cx="0.000000" cy="0.000000" r="514.825374" /> 
            <g transform = "matrix( 1.000000 0.000000 0.000000 1.000000 0.000000 500.000000 )" > 
            </g>
            </g>
        <g transform = "matrix( 1.000000 0.000000 0.000000 1.000000 -1259.750563 1472.761356 )" > 
        </g>
        </g>
        <g  id="40" 
            transform = "matrix( 1.000000 0.000000 0.000000 1.000000 -2180.188034 2872.535757 )" 
            style = "  fill:#0075F5;  stroke:#DC0405; stroke-width:0.000000;  " >

            <g  id="41" 
                transform = "matrix( 1.000000 0.000000 0.000000 1.000000 600.000000 0.000000 )" 
                style = "  fill:#7500F5;  stroke:#DC0405; stroke-width:0.000000;  " >

                <ellipse cx="0.000000" cy="0.000000" rx="323.437500" ry="82.031250" /> 
            <g transform = "matrix( 1.000000 0.000000 0.000000 1.000000 600.000000 0.000000 )" > 
            </g>
            </g>
        <g transform = "matrix( 1.000000 0.000000 0.000000 1.000000 -2180.188034 2872.535757 )" > 
        </g>
        </g>
        <g  id="42" 
            transform = "matrix( 1.000000 0.000000 0.000000 1.000000 -3313.653922 2852.849413 )" 
            style = "  fill:#001535;  stroke:#DC0405; stroke-width:0.000000;  " >

            <g  id="43" 
                style = "  fill:#000000;  stroke:#FA00F0; stroke-width:1.000000;  " >

                <polygon style=" fill-rule:nonzero; "

                points="
                1184.000000,-902.000000 1183.636841,-893.992188 1183.297363,-886.031250 1182.981567,-878.117188 1182.689453,-870.250000 1182.421021,-862.429688 
                1182.176270,-854.656250 1181.955200,-846.929688 1181.757812,-839.250000 1181.584106,-831.617188 1181.434082,-824.031250 1181.307739,-816.492188 
                1181.205078,-809.000000 1181.126099,-801.554688 1181.070801,-794.156250 1181.039185,-786.804688 1181.031250,-779.500000 1181.046997,-772.242188 
                1181.086426,-765.031250 1181.149536,-757.867188 1181.236328,-750.750000 1181.346802,-743.679688 1181.480957,-736.656250 1181.638794,-729.679688 
                1181.820312,-722.750000 1182.025513,-715.867188 1182.254395,-709.031250 1182.506958,-702.242188 1182.783203,-695.500000 1183.083130,-688.804688 
                1183.406738,-682.156250 1183.754028,-675.554688 1184.125000,-669.000000 1184.519653,-662.492188 1184.937988,-656.031250 1185.380005,-649.617188 
                1185.845703,-643.250000 1186.335083,-636.929688 1186.848145,-630.656250 1187.384888,-624.429688 1187.945312,-618.250000 1188.529419,-612.117188 
                1189.137207,-606.031250 1189.768677,-599.992188 1190.423828,-594.000000 1191.102661,-588.054688 1191.805176,-582.156250 1192.531372,-576.304688 
                1193.281250,-570.500000 1194.054810,-564.742188 1194.852051,-559.031250 1195.672974,-553.367188 1196.517578,-547.750000 1197.385864,-542.179688 
                1198.277832,-536.656250 1199.193481,-531.179688 1200.132812,-525.750000 1201.095825,-520.367188 1202.082520,-515.031250 1203.092896,-509.742188 
                1204.126953,-504.500000 1205.184692,-499.304688 1206.266113,-494.156250 1207.371216,-489.054688 1208.500000,-484.000000 1210.828613,-474.031250 
                1213.251953,-464.250000 1215.770020,-454.656250 1218.382812,-445.250000 1221.090332,-436.031250 1223.892578,-427.000000 1226.789551,-418.156250 
                1229.781250,-409.500000 1232.867676,-401.031250 1236.048828,-392.750000 1239.324707,-384.656250 1242.695312,-376.750000 1246.160645,-369.031250 
                1249.720703,-361.500000 1253.375488,-354.156250 1257.125000,-347.000000 1260.969238,-340.031250 1264.908203,-333.250000 1268.941895,-326.656250 
                1273.070312,-320.250000 1277.293457,-314.031250 1281.611328,-308.000000 1286.023926,-302.156250 1290.531250,-296.500000 1295.133301,-291.031250 
                1299.830078,-285.750000 1304.621582,-280.656250 1309.507812,-275.750000 1314.488770,-271.031250 1319.564453,-266.500000 1324.734863,-262.156250 
                1330.000000,-258.000000 1335.333984,-254.073730 1340.710938,-250.419922 1346.130859,-247.038574 1351.593750,-243.929688 1357.099609,-241.093262 
                1362.648438,-238.529297 1368.240234,-236.237793 1373.875000,-234.218750 1379.552734,-232.472168 1385.273438,-230.998047 1391.037109,-229.796387 
                1396.843750,-228.867188 1402.693359,-228.210449 1408.585938,-227.826172 1414.521484,-227.714355 1420.500000,-227.875000 1426.521484,-228.308105 
                1432.585938,-229.013672 1438.693359,-229.991699 1444.843750,-231.242188 1451.037109,-232.765137 1457.273438,-234.560547 1463.552734,-236.628418 
                1469.875000,-238.968750 1476.240234,-241.581543 1482.648438,-244.466797 1489.099609,-247.624512 1495.593750,-251.054688 1502.130859,-254.757324 
                1508.710938,-258.732422 1515.333984,-262.979980 1522.000000,-267.500000 1528.708984,-272.292480 1535.460938,-277.357422 1542.255859,-282.694824 
                1549.093750,-288.304688 1555.974609,-294.187012 1562.898438,-300.341797 1569.865234,-306.769043 1576.875000,-313.468750 1583.927734,-320.440918 
                1591.023438,-327.685547 1598.162109,-335.202637 1605.343750,-342.992188 1612.568359,-351.054199 1619.835938,-359.388672 1627.146484,-367.995605 
                1634.500000,-376.875000 1641.896484,-386.026855 1649.335938,-395.451172 1656.818359,-405.147949 1664.343750,-415.117188 1668.122559,-420.203979 
                1671.912109,-425.358887 1675.712402,-430.581909 1679.523438,-435.873047 1683.345215,-441.232300 1687.177734,-446.659668 1691.020996,-452.155151 
                1694.875000,-457.718750 1698.739746,-463.350464 1702.615234,-469.050293 1706.501465,-474.818237 1710.398438,-480.654297 1714.306152,-486.558472 
                1718.224609,-492.530762 1722.153809,-498.571167 1726.093750,-504.679688 1730.044434,-510.856323 1734.005859,-517.101074 1737.978027,-523.413940 
                1741.960938,-529.794922 1745.954590,-536.244019 1749.958984,-542.761230 1753.974121,-549.346558 1758.000000,-556.000000 1762.004395,-562.664307 
                1765.955078,-569.282227 1769.852051,-575.853760 1773.695312,-582.378906 1777.484863,-588.857666 1781.220703,-595.290039 1784.902832,-601.676025 
                1788.531250,-608.015625 1792.105957,-614.308838 1795.626953,-620.555664 1799.094238,-626.756104 1802.507812,-632.910156 1805.867676,-639.017822 
                1809.173828,-645.079102 1812.426270,-651.093994 1815.625000,-657.062500 1818.770020,-662.984619 1821.861328,-668.860352 1824.898926,-674.689697 
                1827.882812,-680.472656 1830.812988,-686.209229 1833.689453,-691.899414 1836.512207,-697.543213 1839.281250,-703.140625 1841.996582,-708.691650 
                1844.658203,-714.196289 1847.266113,-719.654541 1849.820312,-725.066406 1852.320801,-730.431885 1854.767578,-735.750977 1857.160645,-741.023682 
                1859.500000,-746.250000 1861.785645,-751.429932 1864.017578,-756.563477 1866.195801,-761.650635 1868.320312,-766.691406 1872.408203,-776.633789 
                1876.281250,-786.390625 1879.939453,-795.961914 1883.382812,-805.347656 1886.611328,-814.547852 1889.625000,-823.562500 1892.423828,-832.391602 
                1895.007812,-841.035156 1897.376953,-849.493164 1899.531250,-857.765625 1901.470703,-865.852539 1903.195312,-873.753906 1904.705078,-881.469727 
                1906.000000,-889.000000 1907.080078,-896.344727 1907.945312,-903.503906 1908.595703,-910.477539 1909.031250,-917.265625 1909.251953,-923.868164 
                1909.257812,-930.285156 1909.048828,-936.516602 1908.625000,-942.562500 1907.986328,-948.422852 1907.132812,-954.097656 1906.064453,-959.586914 
                1904.781250,-964.890625 1903.283203,-970.008789 1901.570312,-974.941406 1899.642578,-979.688477 1897.500000,-984.250000 1892.570312,-992.816406 
                1886.781250,-1000.640625 1880.132812,-1007.722656 1872.625000,-1014.062500 1864.257812,-1019.660156 1855.031250,-1024.515625 1850.095703,-1026.665039 
                1844.945312,-1028.628906 1839.580078,-1030.407227 1834.000000,-1032.000000 1828.302734,-1033.529297 1822.585938,-1035.117188 1816.849609,-1036.763672 
                1811.093750,-1038.468750 1805.318359,-1040.232422 1799.523438,-1042.054688 1793.708984,-1043.935547 1787.875000,-1045.875000 1782.021484,-1047.873047 
                1776.148438,-1049.929688 1770.255859,-1052.044922 1764.343750,-1054.218750 1758.412109,-1056.451172 1752.460938,-1058.742188 1746.490234,-1061.091797 
                1740.500000,-1063.500000 1734.490234,-1065.966797 1728.460938,-1068.492188 1722.412109,-1071.076172 1716.343750,-1073.718750 1710.255859,-1076.419922 
                1704.148438,-1079.179688 1698.021484,-1081.998047 1691.875000,-1084.875000 1685.708984,-1087.810547 1679.523438,-1090.804688 1673.318359,-1093.857422 
                1667.093750,-1096.968750 1660.849609,-1100.138672 1654.585938,-1103.367188 1648.302734,-1106.654297 1642.000000,-1110.000000 1635.677734,-1113.404297 
                1629.335938,-1116.867188 1622.974609,-1120.388672 1616.593750,-1123.968750 1610.193359,-1127.607422 1603.773438,-1131.304688 1597.333984,-1135.060547 
                1590.875000,-1138.875000 1584.396484,-1142.748047 1577.898438,-1146.679688 1571.380859,-1150.669922 1564.843750,-1154.718750 1558.287109,-1158.826172 
                1551.710938,-1162.992188 1545.115234,-1167.216797 1538.500000,-1171.500000 1531.865234,-1175.841797 1525.210938,-1180.242188 1518.537109,-1184.701172 
                1511.843750,-1189.218750 1505.130859,-1193.794922 1498.398438,-1198.429688 1491.646484,-1203.123047 1484.875000,-1207.875000 1478.083984,-1212.685547 
                1471.273438,-1217.554688 1464.443359,-1222.482422 1457.593750,-1227.468750 1450.724609,-1232.513672 1443.835938,-1237.617188 1436.927734,-1242.779297 
                1430.000000,-1248.000000 1423.110840,-1253.083496 1416.318359,-1257.833984 1409.622559,-1262.251465 1403.023438,-1266.335938 1396.520996,-1270.087402 
                1390.115234,-1273.505859 1383.806152,-1276.591309 1377.593750,-1279.343750 1371.478027,-1281.763184 1365.458984,-1283.849609 1359.536621,-1285.603027 
                1353.710938,-1287.023438 1347.981934,-1288.110840 1342.349609,-1288.865234 1336.813965,-1289.286621 1331.375000,-1289.375000 1326.032715,-1289.130371 
                1320.787109,-1288.552734 1315.638184,-1287.642090 1310.585938,-1286.398438 1300.771484,-1282.912109 1291.343750,-1278.093750 1282.302734,-1271.943359 
                1273.648438,-1264.460938 1269.466309,-1260.220215 1265.380859,-1255.646484 1261.392090,-1250.739746 1257.500000,-1245.500000 1253.704590,-1239.927246 
                1250.005859,-1234.021484 1246.403809,-1227.782715 1242.898438,-1221.210938 1239.489746,-1214.306152 1236.177734,-1207.068359 1232.962402,-1199.497559 
                1229.843750,-1191.593750 1226.821777,-1183.356934 1223.896484,-1174.787109 1221.067871,-1165.884277 1218.335938,-1156.648438 1215.700684,-1147.079590 
                1213.162109,-1137.177734 1211.929077,-1132.101929 1210.720215,-1126.942871 1209.535522,-1121.700562 1208.375000,-1116.375000 1207.238647,-1110.966187 
                1206.126465,-1105.474121 1205.038452,-1099.898804 1203.974609,-1094.240234 1202.934937,-1088.498413 1201.919434,-1082.673340 1200.928101,-1076.765015 
                1199.960938,-1070.773438 1199.017944,-1064.698608 1198.099121,-1058.540527 1197.204468,-1052.299194 1196.333984,-1045.974609 1195.487671,-1039.566772 
                1194.665527,-1033.075684 1193.867554,-1026.501343 1193.093750,-1019.843750 1192.344116,-1013.102905 1191.618652,-1006.278809 1190.917358,-999.371460 
                1190.240234,-992.380859 1189.587280,-985.307007 1188.958496,-978.149902 1188.353882,-970.909546 1187.773438,-963.585938 1187.217163,-956.179077 
                1186.685059,-948.688965 1186.177124,-941.115601 1185.693359,-933.458984 1185.233765,-925.719116 1184.798340,-917.895996 1184.387085,-909.989624 
                " /> 
            <g transform = "matrix( 1.000000 0.000000 0.000000 1.000000 1184.000000 -902.000000 )" > 
            </g>
            </g>
        <g transform = "matrix( 1.000000 0.000000 0.000000 1.000000 -3313.653922 2852.849413 )" > 
        </g>
        </g>
    </g>
</g>
</svg> 
