<?xml version="1.0"?>
<!DOCTYPE svg PUBLIC "-//W3C//DTD SVG 1.1//EN" 
         "http://www.w3.org/Graphics/SVG/1.1/DTD/svg11.dtd">
<svg xmlns="http://www.w3.org/2000/svg"
     xmlns:xlink="http://www.w3.org/1999/xlink"
     width="10.00cm" height="10.00cm" viewBox="-500.000000 -349.208955 6102.041420 3809.038278 "> 
<title> C:\wxwin\wx2b31\contrib\samples\canvas\editor\vdrawm\klaas4.svg </title>
<desc>Picture generated by wxCanvas</desc>
<g style="fill:black; stroke:black; stroke-width:0"></g>
<g transform = "scale( 1,-1)">
    <g  id="3" 
        style = "  fill:#000000;  stroke:#000000; stroke-width:0.000000;  " >

        <g  id="34" 
            transform = "matrix( 1.000000 0.000000 0.000000 1.000000 -500.000000 750.000000 )" 
            style = "  fill:#0075F5;  stroke:#E50540; stroke-width:0.000000;  " >

            <rect x="0.000000" y="0.000000" width="900.000000" height="80.000000" /> 
        <g transform = "matrix( 1.000000 0.000000 0.000000 1.000000 -500.000000 750.000000 )" > 
        </g>
        </g>
        <g  id="35" 
            style = "  fill:#E60102;  stroke:#1DEB40; stroke-width:0.000000;  " >

            <path 
            d="
            M 0.000000 0.000000 L 100.000000 0.000000 
            L 200.000000 200.000000 L 0.000000 100.000000 
            L 50.000000 50.000000 Z 
            " />
        <g transform = "matrix( 1.000000 0.000000 0.000000 1.000000 0.000000 0.000000 )" > 
        </g>
        </g>
        <g  id="36" 
            style = "  fill:#E60102;  stroke:#1DEB40; stroke-width:0.000000;  " >

            <path 
            d="
            M 0.000000 400.000000 L 100.000000 400.000000 
            L 200.000000 600.000000 M 0.000000 700.000000 
            L 0.000000 500.000000 L 50.000000 450.000000 Z 
            " />
        <g transform = "matrix( 1.000000 0.000000 0.000000 1.000000 0.000000 400.000000 )" > 
        </g>
        </g>
        <g  id="37" 
            style = "  fill:#E60102;  stroke:#1DEBEA; stroke-width:0.000000;  " >

            <path 
            d="
            M 0.000000 600.000000 L 100.000000 600.000000 
            L 200.000000 800.000000 Z M 0.000000 900.000000 
            L 0.000000 700.000000 L 50.000000 650.000000 Z 
            " />
        <g transform = "matrix( 1.000000 0.000000 0.000000 1.000000 0.000000 600.000000 )" > 
        </g>
        </g>
        <g  id="38" 
            style = "  fill:#E60102;  stroke:#1DEB40; stroke-width:0.000000;  " >

            <path 
            d="
            M 500.000000 600.000000 L 600.000000 600.000000 
            L 750.000000 800.000000 Z M 800.000000 900.000000 
            L 800.000000 700.000000 L 900.000000 900.000000 
            L 850.000000 650.000000 L 1000.000000 950.000000 Z 
            " />
        <g transform = "matrix( 1.000000 0.000000 0.000000 1.000000 500.000000 600.000000 )" > 
        </g>
        </g>
        <g  id="39" 
            transform = "matrix( 1.000000 0.000000 0.000000 1.000000 3323.798507 654.291045 )" 
            style = "  fill:#E60102;  stroke:#1DEB40; stroke-width:0.000000;  " >

            <path 
            d="
            M 0.000000 1000.000000 C 500.000000 900.000000 700.000000 500.000000 1000.000000 0.000000 
            C 900.000000 -750.000000 100.000000 -750.000000 0.000000 -1000.000000 C -100.000000 -750.000000 -800.000000 -550.000000 -1000.000000 0.000000 
            T -1000.000000 1000.000000 0.000000 1000.000000 L 0.000000 500.000000 
            L -500.000000 0.000000 L 0.000000 -600.000000 
            L 500.000000 50.000000 L 0.000000 500.000000 Z 
            " />
        <g transform = "matrix( 1.000000 0.000000 0.000000 1.000000 3323.798507 1654.291045 )" > 
        </g>
        </g>
        <g  id="40" 
            transform = "matrix( 1.000000 0.000000 0.000000 1.000000 636.843284 1107.932836 )" 
            style = "  fill:#E60102;  stroke:#1DEB40; stroke-width:0.000000;  " >

            <path 
            d="
            M 1000.000000 1500.000000 T 1353.000000 1353.000000 1500.000000 1000.000000 
            T 1353.000000 646.000000 1000.000000 500.000000 T 646.000000 646.000000 500.000000 1000.000000 
            T 646.000000 1353.000000 1000.000000 1500.000000 L 1000.000000 2000.000000 
            T 292.893219 1707.106781 0.000000 1000.000000 T 617.316568 76.120467 1707.106781 292.893219 
            T 1923.879533 617.316568 2000.000000 1000.000000 T 1707.106781 1707.106781 1000.000000 2000.000000 
            M 1000.000000 2500.000000 T 1453.153894 2211.309131 1383.022222 1678.606195 Z 
            " />
        <g transform = "matrix( 1.000000 0.000000 0.000000 1.000000 1636.843284 2607.932836 )" > 
        </g>
        </g>
    </g>
</g>
</svg> 
