/* XPM */
static const char *const AlignBLPressed_xpm[] = {
"16 16 2 1 0 0",
"  c #0000FF",
"! c None",
"!!!!!!!!!!!!!!!!",
"!!!!!!!!!!!!!!!!",
"!!!!!!!!!!!!!!!!",
"!!!!!!!!!!!!!!!!",
"!!!!!!!!!!!!!!!!",
"!!!!!!!!!!!!!!!!",
"!!!!!!!!!!!!!!!!",
"!!!!!!!!!!!!!!!!",
"!!!!!!!!!!!!!!!!",
"!!!!!!!!!!!!!!!!",
"!!            !!",
"!!!!!!!!!!!!!!!!",
"!!      !!!!!!!!",
"!!!!!!!!!!!!!!!!",
"!!            !!",
"!!!!!!!!!!!!!!!!"
};
