/* XPM */
static const char *const AlignTPressed_xpm[] = {
"16 16 2 1 0 0",
"  c #0000FF",
"! c None",
"!!!!!!!!!!!!!!!!",
"!!            !!",
"!!!!!!!!!!!!!!!!",
"!!!!!      !!!!!",
"!!!!!!!!!!!!!!!!",
"!!            !!",
"!!!!!!!!!!!!!!!!",
"!!!!!!!!!!!!!!!!",
"!!!!!!!!!!!!!!!!",
"!!!!!!!!!!!!!!!!",
"!!!!!!!!!!!!!!!!",
"!!!!!!!!!!!!!!!!",
"!!!!!!!!!!!!!!!!",
"!!!!!!!!!!!!!!!!",
"!!!!!!!!!!!!!!!!",
"!!!!!!!!!!!!!!!!"
};
