/* XPM */
static const char *const AlignTL_xpm[] = {
"16 16 2 1 0 0",
"  c #7A7A7A",
"! c None",
"!!!!!!!!!!!!!!!!",
"!!            !!",
"!!!!!!!!!!!!!!!!",
"!!      !!!!!!!!",
"!!!!!!!!!!!!!!!!",
"!!            !!",
"!!!!!!!!!!!!!!!!",
"!!!!!!!!!!!!!!!!",
"!!!!!!!!!!!!!!!!",
"!!!!!!!!!!!!!!!!",
"!!!!!!!!!!!!!!!!",
"!!!!!!!!!!!!!!!!",
"!!!!!!!!!!!!!!!!",
"!!!!!!!!!!!!!!!!",
"!!!!!!!!!!!!!!!!",
"!!!!!!!!!!!!!!!!"
};
