/* XPM */
static const char *const CapRound_xpm[] = {
"16 16 2 1 0 0",
"  c #000000",
"! c None",
"!!!!!!!!!!!!!!!!",
"!!!!!           ",
"!!!!            ",
"!!!   ! !!!!!!!!",
"!!   !! !!!!!!!!",
"!   !!! !!!!!!!!",
"!  !!!! !!!!!!!!",
"!  !!!!         ",
"!  !!!! !!!!!!!!",
"!   !!! !!!!!!!!",
"!!   !! !!!!!!!!",
"!!!   ! !!!!!!!!",
"!!!!            ",
"!!!!!           ",
"!!!!!!!!!!!!!!!!",
"!!!!!!!!!!!!!!!!"
};
