/* XPM */
static const char *const JoinMiterPressed_xpm[] = {
"16 16 2 1 0 0",
"  c #004FE0",
"! c None",
"!!!!!!!!!!!!!!!!",
"!             !!",
"!             !!",
"!             !!",
"!             !!",
"!             !!",
"!             !!",
"!             !!",
"!       !!!!!!!!",
"!       !!!!!!!!",
"!       !!!!!!!!",
"!       !!!!!!!!",
"!       !!!!!!!!",
"!       !!!!!!!!",
"!!!!!!!!!!!!!!!!",
"!!!!!!!!!!!!!!!!"
};
