/* XPM */
static const char *const JoinRoundDisabled_xpm[] = {
"16 16 2 1 0 0",
"  c #676767",
"! c None",
"!!!!!!!!!!!!!!!!",
"!!!!!!        !!",
"!!!!          !!",
"!!!           !!",
"!!            !!",
"!!            !!",
"!             !!",
"!             !!",
"!       !!!!!!!!",
"!       !!!!!!!!",
"!       !!!!!!!!",
"!       !!!!!!!!",
"!       !!!!!!!!",
"!       !!!!!!!!",
"!!!!!!!!!!!!!!!!",
"!!!!!!!!!!!!!!!!"
};
